<svg version="1.1" xmlns="http://www.w3.org/2000/svg" viewBox="0 0 2003.0166625976562 4880.5" width="2003.0166625976562" height="4880.5">
  <!-- svg-source:excalidraw -->
  
  <defs>
    <style class="style-fonts">
      @font-face {
        font-family: "Virgil";
        src: url("https://excalidraw.com/Virgil.woff2");
      }
      @font-face {
        font-family: "Cascadia";
        src: url("https://excalidraw.com/Cascadia.woff2");
      }
      @font-face {
        font-family: "Assistant";
        src: url("https://excalidraw.com/Assistant-Regular.woff2");
      }
    </style>
    
  </defs>
  <rect x="0" y="0" width="2003.0166625976562" height="4880.5" fill="#ffffff"></rect><g stroke-linecap="round" transform="translate(273 10) rotate(0 578 345)"><path d="M32 0 C319.52 1.6, 606.55 2.46, 1124 0 M32 0 C388.15 1.18, 744.57 1.11, 1124 0 M1124 0 C1143.72 -1.72, 1155.19 12.11, 1156 32 M1124 0 C1143.36 1.77, 1155.14 10.37, 1156 32 M1156 32 C1158.67 261.1, 1157.74 490.61, 1156 658 M1156 32 C1156.93 166.59, 1157.08 300.56, 1156 658 M1156 658 C1157.16 680.81, 1144.15 689.19, 1124 690 M1156 658 C1156.97 679.62, 1144.81 691.36, 1124 690 M1124 690 C810.24 692.53, 496.73 693.52, 32 690 M1124 690 C884.6 686.2, 644.96 685.79, 32 690 M32 690 C10.32 690.07, 1.15 679.59, 0 658 M32 690 C12.03 690.95, -1.86 677.05, 0 658 M0 658 C1.64 445.19, 2.04 232.22, 0 32 M0 658 C-0.68 427.13, -0.48 195.57, 0 32 M0 32 C-1.03 9.54, 12.16 -1.17, 32 0 M0 32 C-1.55 9.45, 11.88 -0.54, 32 0" stroke="#1e1e1e" stroke-width="2" fill="none"></path></g><g transform="translate(747 32) rotate(0 86.19999694824219 22.5)"><text x="0" y="0" font-family="Virgil, Segoe UI Emoji" font-size="36px" fill="#1e1e1e" text-anchor="start" style="white-space: pre;" direction="ltr" dominant-baseline="text-before-edge">Quiz-Czar</text></g><g stroke-linecap="round" transform="translate(586 506) rotate(0 253.5 64.5)"><path d="M32 0 C139.69 1.82, 247 1.06, 475 0 M32 0 C173.63 0.87, 314.61 0.7, 475 0 M475 0 C497.65 1.08, 506.86 9.58, 507 32 M475 0 C497.1 0.06, 508.52 12.12, 507 32 M507 32 C506.51 56.03, 507.08 81.43, 507 97 M507 32 C506.38 48.3, 507.6 64.61, 507 97 M507 97 C507.61 118.66, 497.71 127.28, 475 129 M507 97 C507.18 116.21, 498.09 131.07, 475 129 M475 129 C312.85 130.61, 149.83 129.98, 32 129 M475 129 C355.4 130.42, 237.02 130.02, 32 129 M32 129 C8.98 128.76, -1.47 118.5, 0 97 M32 129 C12.2 127.81, -0.11 117.73, 0 97 M0 97 C-1.95 79.09, 0.69 61.05, 0 32 M0 97 C-0.29 75.6, -0.94 54.3, 0 32 M0 32 C1.28 11.98, 11.26 -0.39, 32 0 M0 32 C2.04 9.25, 10.93 -0.07, 32 0" stroke="#1e1e1e" stroke-width="2" fill="none"></path></g><g transform="translate(777 553) rotate(0 60.81666564941406 22.5)"><text x="0" y="0" font-family="Virgil, Segoe UI Emoji" font-size="36px" fill="#1e1e1e" text-anchor="start" style="white-space: pre;" direction="ltr" dominant-baseline="text-before-edge">BEGIN</text></g><g transform="translate(784 187) rotate(0 -36.5 146.5)" stroke="none"><path fill="#1e1e1e" d="M 0.83,4.99 Q 0.83,4.99 -2.63,5.44 -6.10,5.90 -8.55,6.23 -10.99,6.56 -11.49,8.66 -12.00,10.76 -11.90,12.92 -11.80,15.08 -12.16,18.06 -12.52,21.04 -12.50,23.87 -12.48,26.69 -11.84,29.84 -11.20,32.98 -10.45,35.99 -9.69,39.00 -8.61,41.86 -7.53,44.72 -6.16,47.80 -4.79,50.89 -2.80,53.09 -0.81,55.30 0.98,56.61 2.78,57.91 4.33,59.39 5.87,60.87 6.85,63.64 7.83,66.41 8.48,68.94 9.14,71.46 9.72,74.17 10.31,76.88 11.14,79.27 11.98,81.66 12.42,84.24 12.86,86.83 13.18,89.08 13.49,91.33 14.10,95.34 14.70,99.35 14.82,102.19 14.94,105.04 15.02,107.92 15.09,110.79 15.09,113.03 15.09,115.27 14.65,117.48 14.22,119.69 13.26,123.32 12.29,126.94 11.77,129.15 11.24,131.36 9.45,135.55 7.66,139.75 6.82,141.93 5.98,144.11 4.23,147.68 2.48,151.25 1.20,153.30 -0.08,155.35 -2.52,158.64 -4.97,161.93 -7.03,163.95 -9.10,165.96 -11.38,167.39 -13.66,168.81 -16.59,170.51 -19.52,172.20 -22.14,173.35 -24.76,174.49 -26.77,175.28 -28.78,176.07 -31.94,177.53 -35.11,178.98 -37.57,179.81 -40.03,180.64 -42.44,181.53 -44.85,182.42 -47.00,183.55 -49.15,184.67 -51.29,186.55 -53.42,188.43 -55.54,191.95 -57.66,195.46 -59.16,197.94 -60.65,200.43 -61.97,203.91 -63.29,207.39 -63.58,209.96 -63.88,212.52 -64.42,215.78 -64.96,219.04 -65.45,221.68 -65.93,224.31 -66.05,227.29 -66.17,230.28 -66.20,232.47 -66.23,234.66 -66.64,237.89 -67.04,241.12 -67.35,244.51 -67.65,247.90 -68.09,251.31 -68.53,254.72 -68.56,258.20 -68.58,261.69 -68.81,265.45 -69.04,269.21 -69.08,271.41 -69.12,273.61 -69.90,276.05 -70.67,278.50 -71.82,282.37 -72.97,286.24 -73.32,288.49 -73.68,290.74 -74.38,292.97 -75.07,295.20 -75.58,296.09 -76.08,296.98 -76.85,297.66 -77.61,298.34 -78.55,298.74 -79.49,299.14 -80.51,299.22 -81.53,299.29 -82.53,299.04 -83.52,298.79 -84.38,298.24 -85.24,297.68 -85.87,296.88 -86.51,296.08 -86.86,295.12 -87.21,294.16 -87.23,293.14 -87.26,292.12 -86.95,291.14 -86.65,290.16 -86.05,289.33 -85.45,288.51 -84.61,287.91 -83.78,287.32 -82.80,287.02 -81.82,286.73 -80.80,286.76 -79.78,286.79 -78.82,287.15 -77.86,287.50 -77.07,288.15 -76.27,288.79 -75.72,289.66 -75.18,290.52 -74.93,291.51 -74.69,292.51 -74.78,293.53 -74.87,294.55 -75.27,295.48 -75.68,296.42 -76.37,297.18 -77.05,297.94 -77.95,298.44 -78.84,298.94 -79.85,299.13 -80.85,299.32 -81.86,299.17 -82.88,299.03 -83.79,298.57 -84.71,298.11 -85.43,297.39 -86.15,296.66 -86.60,295.74 -87.05,294.82 -87.18,293.81 -87.31,292.80 -87.12,291.79 -86.92,290.79 -86.92,290.79 -86.92,290.79 -86.09,288.03 -85.26,285.27 -84.06,281.73 -82.85,278.19 -81.83,275.40 -80.80,272.61 -80.43,270.00 -80.07,267.40 -79.65,264.35 -79.22,261.30 -78.84,257.49 -78.45,253.68 -78.20,250.60 -77.96,247.53 -78.00,243.77 -78.05,240.01 -77.85,237.25 -77.66,234.48 -77.46,230.54 -77.25,226.59 -76.98,224.46 -76.70,222.32 -76.26,219.98 -75.83,217.64 -75.56,214.61 -75.29,211.58 -74.33,205.57 -73.38,199.56 -72.38,197.01 -71.38,194.46 -70.20,192.15 -69.01,189.83 -67.76,187.19 -66.51,184.54 -65.07,182.27 -63.62,179.99 -62.16,178.34 -60.70,176.68 -58.32,175.12 -55.94,173.55 -52.90,172.03 -49.85,170.51 -47.32,169.33 -44.79,168.14 -41.35,166.92 -37.92,165.70 -34.23,164.01 -30.54,162.32 -28.62,161.31 -26.71,160.31 -24.84,159.08 -22.97,157.85 -20.96,156.83 -18.95,155.80 -16.38,153.59 -13.82,151.37 -12.51,148.85 -11.20,146.33 -9.45,143.54 -7.70,140.76 -6.88,138.31 -6.05,135.86 -4.86,133.25 -3.66,130.64 -2.89,128.50 -2.11,126.37 -1.59,124.28 -1.08,122.19 -0.47,119.88 0.13,117.57 0.50,115.10 0.88,112.64 0.91,110.39 0.94,108.14 0.92,105.68 0.91,103.22 0.72,100.52 0.53,97.82 -0.37,94.23 -1.28,90.64 -1.79,87.92 -2.30,85.20 -2.92,83.13 -3.53,81.07 -3.45,78.40 -3.36,75.72 -3.70,72.71 -4.05,69.70 -6.08,68.70 -8.12,67.70 -10.22,65.52 -12.33,63.35 -14.10,61.14 -15.88,58.93 -17.24,56.49 -18.60,54.05 -19.76,50.81 -20.93,47.57 -21.90,44.21 -22.87,40.85 -23.44,38.53 -24.00,36.22 -24.77,32.69 -25.53,29.17 -25.47,26.88 -25.40,24.60 -25.25,22.35 -25.11,20.10 -24.60,16.81 -24.09,13.52 -23.75,10.51 -23.42,7.51 -22.24,5.16 -21.06,2.81 -18.89,0.38 -16.72,-2.04 -14.42,-2.66 -12.12,-3.28 -9.90,-3.44 -7.69,-3.60 -4.26,-4.29 -0.83,-4.99 -0.22,-5.02 0.38,-5.05 0.98,-4.93 1.58,-4.81 2.13,-4.55 2.68,-4.29 3.16,-3.90 3.63,-3.52 4.00,-3.03 4.37,-2.55 4.61,-1.98 4.85,-1.42 4.95,-0.82 5.06,-0.22 5.01,0.38 4.96,0.99 4.77,1.57 4.58,2.15 4.26,2.67 3.93,3.18 3.49,3.61 3.05,4.03 2.53,4.34 2.00,4.65 1.41,4.82 0.83,4.99 0.83,4.99 L 0.83,4.99 Z"></path></g><g transform="translate(775 190) rotate(0 77 129.5)" stroke="none"><path fill="#1e1e1e" d="M -3.88,-3.17 Q -3.88,-3.17 -1.09,-6.17 1.69,-9.17 3.35,-11.19 5.01,-13.22 6.61,-15.26 8.21,-17.31 10.09,-19.43 11.97,-21.56 14.77,-22.32 17.57,-23.08 21.16,-23.60 24.76,-24.13 28.03,-24.63 31.30,-25.13 33.65,-26.07 35.99,-27.01 39.20,-28.89 42.42,-30.77 45.37,-31.77 48.31,-32.77 50.79,-33.25 53.27,-33.73 55.79,-34.11 58.32,-34.49 61.16,-35.31 64.01,-36.13 66.97,-36.63 69.92,-37.14 72.43,-37.31 74.95,-37.48 78.97,-36.22 82.99,-34.96 85.71,-33.40 88.42,-31.85 90.26,-30.33 92.09,-28.80 93.87,-26.77 95.65,-24.74 96.98,-22.98 98.32,-21.23 100.61,-17.72 102.91,-14.21 103.81,-11.21 104.70,-8.22 105.35,-5.88 106.00,-3.53 106.47,-1.23 106.94,1.07 108.13,3.30 109.33,5.53 110.07,7.73 110.81,9.94 111.64,12.12 112.47,14.31 113.62,17.42 114.77,20.53 114.96,22.80 115.14,25.06 114.77,28.48 114.41,31.89 114.31,34.70 114.21,37.51 113.74,39.96 113.28,42.41 111.97,45.77 110.67,49.13 110.11,53.04 109.56,56.94 108.98,59.04 108.40,61.14 107.87,64.68 107.34,68.21 106.70,70.24 106.06,72.27 105.10,75.17 104.13,78.06 103.07,81.27 102.01,84.47 101.79,87.16 101.58,89.85 101.04,91.92 100.49,93.98 100.40,96.51 100.31,99.04 100.00,104.06 99.69,109.07 99.60,111.64 99.50,114.20 99.42,116.73 99.34,119.26 99.63,124.12 99.93,128.98 100.36,131.84 100.80,134.70 101.02,137.64 101.25,140.58 101.59,142.97 101.93,145.36 102.80,148.98 103.68,152.60 104.54,155.51 105.40,158.42 106.36,161.40 107.32,164.38 108.11,166.66 108.90,168.93 109.71,172.37 110.53,175.80 113.03,181.16 115.53,186.52 118.03,191.94 120.52,197.37 122.40,200.33 124.27,203.30 125.58,205.17 126.89,207.03 128.51,209.05 130.13,211.06 131.51,213.12 132.89,215.19 134.56,217.57 136.23,219.95 138.00,222.12 139.76,224.30 141.65,226.12 143.53,227.95 145.36,229.07 147.19,230.18 150.42,232.42 153.66,234.66 154.57,236.88 155.48,239.10 156.27,241.69 157.06,244.27 157.29,246.99 157.53,249.71 157.37,254.84 157.20,259.96 157.57,262.17 157.93,264.37 158.31,266.72 158.69,269.07 159.41,271.51 160.13,273.94 159.61,277.53 159.10,281.11 158.33,283.22 157.57,285.34 155.77,289.14 153.97,292.94 153.34,293.82 152.72,294.69 151.84,295.32 150.97,295.95 149.94,296.27 148.91,296.59 147.83,296.57 146.76,296.54 145.74,296.17 144.73,295.80 143.89,295.13 143.05,294.45 142.47,293.55 141.88,292.64 141.62,291.60 141.36,290.55 141.44,289.48 141.53,288.40 141.95,287.41 142.38,286.42 143.09,285.62 143.81,284.81 144.75,284.28 145.68,283.75 146.74,283.54 147.80,283.34 148.87,283.48 149.94,283.62 150.90,284.10 151.87,284.58 152.63,285.34 153.40,286.10 153.88,287.06 154.36,288.03 154.50,289.09 154.65,290.16 154.45,291.22 154.25,292.28 153.72,293.22 153.20,294.16 152.39,294.88 151.59,295.60 150.61,296.03 149.62,296.45 148.54,296.54 147.47,296.63 146.42,296.38 145.38,296.12 144.47,295.54 143.56,294.96 142.88,294.12 142.20,293.29 141.83,292.27 141.46,291.26 141.43,290.19 141.39,289.11 141.71,288.08 142.02,287.05 142.02,287.05 142.02,287.05 144.00,283.19 145.97,279.33 147.06,276.47 148.15,273.62 147.49,269.92 146.83,266.22 146.36,263.42 145.89,260.63 145.04,253.26 144.18,245.89 142.85,243.48 141.53,241.07 139.01,239.60 136.49,238.13 134.37,235.68 132.25,233.23 130.74,230.99 129.24,228.75 127.25,225.70 125.26,222.65 123.65,219.25 122.04,215.86 120.88,213.60 119.73,211.34 118.75,209.41 117.78,207.49 115.63,204.22 113.48,200.96 110.58,195.78 107.68,190.61 104.24,184.56 100.80,178.52 99.82,175.40 98.84,172.28 98.10,169.98 97.36,167.67 96.73,164.43 96.09,161.19 95.26,158.42 94.43,155.66 92.68,151.35 90.93,147.03 90.50,144.28 90.07,141.53 89.85,139.14 89.62,136.75 88.99,133.84 88.36,130.93 87.51,125.09 86.65,119.26 86.58,116.73 86.50,114.20 86.40,111.63 86.30,109.06 86.04,105.72 85.79,102.38 85.77,99.80 85.76,97.21 85.89,94.64 86.02,92.07 86.38,89.95 86.73,87.83 87.24,85.52 87.74,83.22 88.38,80.78 89.02,78.35 90.05,75.22 91.09,72.10 92.02,69.31 92.95,66.52 93.40,63.77 93.84,61.01 94.24,58.42 94.64,55.84 95.30,52.72 95.96,49.60 96.56,46.92 97.16,44.24 98.11,41.45 99.06,38.66 99.46,35.95 99.87,33.24 100.33,30.51 100.80,27.79 101.41,25.28 102.01,22.78 100.74,20.67 99.47,18.57 98.44,15.85 97.42,13.14 97.00,10.46 96.58,7.79 95.15,4.06 93.72,0.33 92.83,-2.19 91.93,-4.72 90.89,-7.99 89.84,-11.25 87.91,-13.72 85.97,-16.19 83.73,-18.42 81.48,-20.66 79.00,-22.12 76.52,-23.58 74.36,-24.08 72.20,-24.59 70.03,-24.54 67.86,-24.49 64.07,-23.55 60.28,-22.61 56.71,-22.32 53.14,-22.03 50.79,-21.62 48.45,-21.20 46.24,-20.60 44.02,-19.99 41.87,-18.84 39.71,-17.68 36.45,-16.40 33.18,-15.11 30.03,-14.43 26.88,-13.75 23.46,-12.84 20.05,-11.94 17.86,-11.19 15.68,-10.45 13.85,-8.77 12.03,-7.10 10.34,-5.29 8.65,-3.47 6.26,-0.15 3.88,3.17 3.44,3.59 3.00,4.01 2.48,4.31 1.96,4.61 1.38,4.78 0.79,4.95 0.19,4.97 -0.40,5.00 -1.00,4.87 -1.59,4.75 -2.13,4.49 -2.68,4.23 -3.15,3.85 -3.62,3.47 -3.98,2.98 -4.34,2.50 -4.58,1.94 -4.82,1.39 -4.91,0.79 -5.01,0.19 -4.96,-0.40 -4.91,-1.00 -4.72,-1.58 -4.53,-2.15 -4.20,-2.66 -3.88,-3.17 -3.88,-3.17 L -3.88,-3.17 Z"></path></g><g transform="translate(812 282) rotate(0 14 4.5)" stroke="none"><path fill="#1e1e1e" d="M 3.34,-4.01 Q 3.34,-4.01 5.10,-2.61 6.86,-1.20 8.49,0.50 10.13,2.21 11.81,4.21 13.48,6.22 14.77,8.01 16.06,9.80 17.37,12.08 18.68,14.36 16.40,14.06 14.12,13.75 14.99,10.84 15.86,7.93 17.02,5.45 18.17,2.96 19.20,0.25 20.24,-2.45 20.63,-5.15 21.01,-7.85 20.98,-9.02 20.96,-10.19 21.06,-11.03 21.16,-11.88 21.47,-12.67 21.77,-13.46 22.25,-14.16 22.73,-14.86 23.37,-15.42 24.01,-15.98 24.76,-16.37 25.51,-16.77 26.34,-16.97 27.16,-17.17 28.01,-17.17 28.86,-17.16 29.68,-16.96 30.50,-16.76 31.25,-16.36 32.00,-15.96 32.64,-15.40 33.27,-14.84 33.75,-14.14 34.23,-13.44 34.53,-12.64 34.83,-11.85 34.93,-11.01 35.03,-10.16 34.39,-7.98 33.75,-5.80 32.05,-3.20 30.35,-0.59 28.68,1.60 27.01,3.81 25.36,6.03 23.70,8.24 22.05,9.98 20.41,11.72 17.28,12.07 14.16,12.42 11.64,11.36 9.13,10.30 7.22,7.25 5.31,4.19 4.80,2.09 4.28,-0.00 3.55,-2.89 2.82,-5.78 2.82,-6.96 2.81,-8.13 3.18,-9.25 3.55,-10.37 4.26,-11.31 4.96,-12.25 5.93,-12.92 6.91,-13.58 8.04,-13.90 9.17,-14.22 10.35,-14.17 11.52,-14.11 12.62,-13.68 13.71,-13.25 14.61,-12.49 15.51,-11.73 16.13,-10.73 16.74,-9.72 17.00,-8.58 17.26,-7.43 17.14,-6.26 17.01,-5.09 16.53,-4.01 16.04,-2.94 15.23,-2.09 14.43,-1.23 13.39,-0.67 12.35,-0.11 11.19,0.07 10.03,0.27 8.87,0.09 7.71,-0.09 6.67,-0.63 5.62,-1.18 4.81,-2.03 3.99,-2.88 3.50,-3.95 3.00,-5.01 2.86,-6.18 2.73,-7.35 2.98,-8.50 3.22,-9.65 3.82,-10.66 4.43,-11.68 5.32,-12.44 6.21,-13.21 7.30,-13.65 8.39,-14.09 9.57,-14.16 10.74,-14.23 11.88,-13.92 13.02,-13.61 13.99,-12.96 14.97,-12.30 15.69,-11.37 16.41,-10.44 16.79,-9.32 17.17,-8.21 17.17,-8.21 17.17,-8.21 17.35,-7.07 17.53,-5.94 16.79,-3.36 16.06,-0.78 13.65,0.37 11.24,1.52 12.52,-0.64 13.81,-2.81 15.63,-5.18 17.45,-7.55 19.20,-8.87 20.96,-10.19 21.06,-11.03 21.16,-11.88 21.47,-12.67 21.77,-13.46 22.25,-14.16 22.73,-14.86 23.37,-15.42 24.01,-15.98 24.76,-16.37 25.51,-16.77 26.33,-16.97 27.16,-17.17 28.01,-17.17 28.86,-17.16 29.68,-16.96 30.50,-16.76 31.25,-16.36 32.00,-15.96 32.64,-15.40 33.27,-14.84 33.75,-14.14 34.23,-13.44 34.53,-12.64 34.83,-11.85 34.93,-11.01 35.03,-10.17 34.96,-7.60 34.89,-5.03 34.51,-2.46 34.13,0.09 32.54,3.15 30.95,6.21 29.88,8.68 28.81,11.15 27.85,13.10 26.90,15.05 25.31,17.97 23.72,20.88 21.72,22.89 19.73,24.89 16.83,25.31 13.92,25.73 11.10,23.26 8.28,20.78 7.03,17.83 5.77,14.88 4.47,13.15 3.18,11.43 1.60,9.19 0.03,6.95 -1.65,5.48 -3.34,4.01 -3.77,3.55 -4.20,3.09 -4.51,2.54 -4.82,2.00 -4.99,1.39 -5.16,0.78 -5.18,0.15 -5.20,-0.47 -5.07,-1.08 -4.94,-1.70 -4.66,-2.27 -4.38,-2.83 -3.98,-3.32 -3.58,-3.80 -3.07,-4.17 -2.56,-4.55 -1.98,-4.79 -1.40,-5.03 -0.78,-5.12 -0.15,-5.22 0.46,-5.16 1.09,-5.11 1.69,-4.90 2.28,-4.69 2.81,-4.35 3.34,-4.01 3.34,-4.01 L 3.34,-4.01 Z"></path></g><g transform="translate(770 190) rotate(0 44.5 -29)" stroke="none"><path fill="#1e1e1e" d="M -1.76,-3.74 Q -1.76,-3.74 3.20,-5.86 8.18,-7.98 15.21,-11.12 22.24,-14.26 29.09,-16.75 35.95,-19.25 41.82,-20.87 47.69,-22.48 51.27,-23.54 54.85,-24.60 57.82,-25.59 60.78,-26.59 65.59,-27.43 70.39,-28.27 72.77,-28.67 75.16,-29.07 78.87,-29.59 82.59,-30.11 84.96,-30.77 87.32,-31.43 89.44,-31.84 91.57,-32.25 94.00,-32.46 96.44,-32.67 99.37,-32.93 102.30,-33.18 102.93,-33.12 103.55,-33.06 104.14,-32.85 104.74,-32.65 105.26,-32.30 105.79,-31.96 106.22,-31.50 106.65,-31.04 106.95,-30.49 107.26,-29.94 107.42,-29.33 107.59,-28.72 107.61,-28.09 107.62,-27.46 107.49,-26.85 107.35,-26.24 107.07,-25.67 106.79,-25.11 106.39,-24.63 105.98,-24.15 105.47,-23.78 104.96,-23.41 104.38,-23.17 103.80,-22.93 103.18,-22.84 102.55,-22.75 100.30,-22.76 98.04,-22.77 94.86,-22.85 91.69,-22.93 87.75,-23.16 83.82,-23.38 78.32,-23.08 72.83,-22.77 63.58,-21.59 54.32,-20.40 44.83,-19.37 35.35,-18.34 26.91,-17.94 18.48,-17.54 11.38,-17.69 4.29,-17.84 1.08,-17.74 -2.12,-17.64 -3.20,-14.74 -4.29,-11.83 -5.00,-9.67 -5.71,-7.51 -7.03,-4.59 -8.35,-1.66 -8.99,-0.84 -9.63,-0.02 -10.08,0.50 -10.54,1.02 -11.11,1.42 -11.67,1.83 -12.32,2.08 -12.97,2.33 -13.65,2.42 -14.34,2.52 -15.03,2.44 -15.72,2.36 -16.38,2.13 -17.03,1.89 -17.60,1.50 -18.18,1.11 -18.65,0.60 -19.11,0.08 -19.44,-0.52 -19.77,-1.13 -19.95,-1.80 -20.12,-2.48 -20.13,-3.17 -20.14,-3.86 -19.98,-4.54 -19.82,-5.22 -19.50,-5.83 -19.19,-6.45 -15.36,-7.28 -11.53,-8.11 -8.93,-9.59 -6.32,-11.07 -3.37,-11.97 -0.42,-12.86 5.01,-14.39 10.46,-15.93 18.39,-19.24 26.32,-22.56 30.62,-24.46 34.92,-26.35 37.07,-27.45 39.21,-28.54 45.39,-29.15 51.57,-29.76 54.98,-30.10 58.38,-30.43 61.71,-30.63 65.04,-30.83 67.30,-31.04 69.57,-31.24 72.59,-31.60 75.61,-31.97 78.27,-32.15 80.93,-32.34 83.83,-32.57 86.74,-32.80 89.27,-33.41 91.81,-34.02 93.04,-31.98 94.27,-29.94 91.60,-31.20 88.93,-32.46 86.28,-34.89 83.63,-37.31 81.63,-39.40 79.64,-41.48 78.26,-43.83 76.88,-46.17 76.69,-49.18 76.49,-52.19 76.41,-54.64 76.32,-57.09 76.42,-57.89 76.52,-58.69 76.80,-59.44 77.08,-60.19 77.54,-60.85 78.00,-61.52 78.60,-62.05 79.20,-62.59 79.91,-62.96 80.62,-63.33 81.40,-63.53 82.18,-63.72 82.99,-63.72 83.79,-63.72 84.57,-63.53 85.35,-63.34 86.06,-62.97 86.78,-62.60 87.38,-62.06 87.98,-61.53 88.44,-60.87 88.90,-60.21 89.18,-59.46 89.47,-58.71 89.57,-57.91 89.67,-57.11 85.49,-53.06 81.31,-49.01 78.86,-48.28 76.42,-47.55 73.20,-46.56 69.98,-45.57 67.08,-44.90 64.17,-44.23 60.38,-43.76 56.59,-43.28 50.32,-42.49 44.05,-41.70 40.12,-41.37 36.19,-41.04 33.39,-40.16 30.59,-39.27 28.36,-38.83 26.12,-38.38 23.80,-37.91 21.48,-37.44 19.03,-36.63 16.57,-35.82 13.73,-35.30 10.90,-34.78 10.45,-31.71 10.01,-28.63 11.31,-26.30 12.61,-23.97 8.30,-23.88 3.99,-23.80 4.84,-26.02 5.70,-28.25 7.10,-29.93 8.51,-31.61 12.71,-34.37 16.91,-37.12 18.92,-37.91 20.93,-38.70 23.17,-39.55 25.42,-40.39 28.40,-41.46 31.38,-42.53 35.11,-43.32 38.83,-44.10 42.93,-44.73 47.02,-45.36 50.29,-46.14 53.57,-46.91 54.79,-47.44 56.01,-47.96 56.67,-47.94 57.33,-47.92 57.96,-47.74 58.59,-47.57 59.17,-47.24 59.74,-46.92 60.22,-46.47 60.70,-46.02 61.06,-45.47 61.41,-44.92 61.63,-44.30 61.84,-43.68 61.90,-43.02 61.96,-42.37 61.87,-41.72 61.77,-41.07 61.52,-40.46 61.27,-39.85 60.88,-39.32 60.49,-38.79 59.98,-38.37 59.48,-37.95 58.89,-37.66 58.30,-37.37 57.66,-37.23 57.01,-37.10 53.37,-36.94 49.73,-36.79 47.49,-36.22 45.24,-35.65 42.97,-35.06 40.71,-34.47 38.22,-33.58 35.73,-32.70 34.49,-32.14 33.25,-31.58 32.53,-31.57 31.81,-31.55 31.11,-31.71 30.41,-31.87 29.77,-32.19 29.13,-32.52 28.58,-32.98 28.04,-33.45 27.62,-34.03 27.20,-34.62 26.93,-35.28 26.67,-35.95 26.57,-36.66 26.47,-37.37 26.54,-38.09 26.62,-38.80 26.86,-39.48 27.10,-40.16 27.50,-40.75 27.90,-41.35 28.43,-41.84 28.96,-42.32 29.59,-42.67 30.22,-43.01 30.91,-43.20 31.60,-43.38 33.87,-43.27 36.15,-43.15 40.34,-42.70 44.53,-42.24 50.40,-41.89 56.27,-41.54 64.72,-42.97 73.17,-44.40 78.21,-45.76 83.25,-47.12 86.02,-48.59 88.79,-50.06 90.30,-51.16 91.81,-52.26 92.27,-52.42 92.74,-52.59 93.23,-52.64 93.72,-52.69 94.21,-52.62 94.69,-52.55 95.15,-52.37 95.61,-52.18 96.01,-51.90 96.41,-51.61 96.73,-51.24 97.05,-50.86 97.27,-50.42 97.49,-49.98 97.60,-49.50 97.71,-49.02 97.70,-48.53 97.69,-48.04 97.56,-47.56 97.43,-47.08 97.20,-46.65 96.96,-46.22 96.63,-45.86 96.29,-45.50 95.88,-45.22 95.47,-44.95 90.80,-43.09 86.12,-41.23 83.95,-39.82 81.79,-38.40 78.20,-36.87 74.61,-35.34 70.42,-34.00 66.23,-32.65 63.70,-31.61 61.17,-30.57 60.12,-29.74 59.07,-28.92 58.56,-28.81 58.05,-28.69 57.53,-28.70 57.01,-28.71 56.50,-28.84 56.00,-28.98 55.54,-29.23 55.08,-29.48 54.70,-29.83 54.31,-30.18 54.02,-30.62 53.74,-31.05 53.56,-31.54 53.38,-32.04 53.33,-32.56 53.27,-33.07 53.35,-33.59 53.42,-34.11 53.61,-34.59 53.81,-35.08 54.11,-35.50 54.41,-35.93 54.81,-36.27 55.21,-36.61 55.67,-36.84 56.14,-37.07 58.33,-36.81 60.52,-36.55 64.39,-37.72 68.26,-38.88 71.26,-39.60 74.25,-40.32 77.14,-41.03 80.03,-41.74 80.81,-41.77 81.59,-41.80 82.34,-41.58 83.09,-41.36 83.73,-40.91 84.37,-40.46 84.84,-39.83 85.30,-39.20 85.54,-38.45 85.78,-37.71 85.77,-36.92 85.76,-36.14 85.50,-35.40 85.24,-34.66 84.75,-34.05 84.27,-33.43 83.62,-33.00 82.96,-32.57 82.20,-32.38 81.45,-32.18 80.66,-32.23 79.88,-32.29 79.16,-32.59 78.44,-32.89 77.85,-33.40 77.26,-33.92 76.87,-34.60 76.47,-35.27 76.32,-36.04 76.16,-36.81 76.26,-37.58 76.35,-38.36 76.69,-39.07 77.03,-39.77 77.58,-40.33 78.13,-40.89 78.82,-41.25 79.52,-41.60 80.29,-41.72 81.07,-41.83 81.84,-41.69 82.61,-41.56 83.30,-41.18 83.98,-40.80 84.51,-40.23 85.04,-39.65 85.36,-38.93 85.68,-38.22 85.75,-37.44 85.82,-36.66 85.64,-35.90 85.46,-35.14 85.05,-34.47 84.63,-33.81 84.03,-33.31 83.43,-32.81 82.69,-32.53 81.96,-32.25 81.96,-32.25 81.96,-32.25 79.22,-31.81 76.48,-31.37 73.21,-30.53 69.94,-29.69 67.36,-29.29 64.77,-28.88 61.92,-28.90 59.07,-28.92 58.56,-28.81 58.05,-28.69 57.53,-28.70 57.01,-28.71 56.50,-28.84 56.00,-28.98 55.54,-29.23 55.08,-29.48 54.70,-29.83 54.31,-30.18 54.02,-30.62 53.74,-31.05 53.56,-31.54 53.38,-32.04 53.33,-32.55 53.27,-33.07 53.35,-33.59 53.42,-34.11 53.61,-34.59 53.81,-35.08 54.11,-35.50 54.41,-35.93 54.81,-36.27 55.21,-36.60 55.67,-36.84 56.14,-37.07 57.27,-37.61 58.40,-38.15 60.99,-38.94 63.59,-39.74 67.39,-41.38 71.20,-43.02 74.25,-44.44 77.30,-45.86 79.94,-47.34 82.57,-48.82 87.19,-50.54 91.81,-52.26 92.27,-52.42 92.74,-52.59 93.23,-52.64 93.72,-52.69 94.21,-52.62 94.69,-52.55 95.15,-52.37 95.61,-52.18 96.01,-51.90 96.41,-51.61 96.73,-51.24 97.05,-50.86 97.27,-50.42 97.49,-49.98 97.60,-49.50 97.71,-49.02 97.70,-48.53 97.69,-48.04 97.56,-47.56 97.43,-47.08 97.20,-46.65 96.96,-46.22 96.63,-45.86 96.29,-45.50 95.88,-45.22 95.47,-44.95 93.80,-44.17 92.13,-43.39 88.76,-41.77 85.40,-40.16 80.05,-38.34 74.70,-36.52 65.49,-34.53 56.27,-32.53 50.33,-32.23 44.40,-31.93 38.82,-31.75 33.25,-31.58 32.53,-31.57 31.81,-31.55 31.11,-31.71 30.41,-31.87 29.77,-32.19 29.13,-32.52 28.58,-32.98 28.04,-33.45 27.62,-34.03 27.20,-34.62 26.93,-35.28 26.67,-35.95 26.57,-36.66 26.47,-37.37 26.54,-38.09 26.62,-38.80 26.86,-39.48 27.10,-40.15 27.50,-40.75 27.90,-41.35 28.43,-41.84 28.95,-42.32 29.58,-42.67 30.21,-43.01 30.91,-43.20 31.60,-43.38 32.32,-43.67 33.04,-43.96 35.51,-44.59 37.98,-45.22 40.24,-45.77 42.50,-46.33 45.50,-47.11 48.50,-47.88 52.26,-47.92 56.01,-47.96 56.67,-47.94 57.33,-47.92 57.96,-47.74 58.59,-47.57 59.17,-47.24 59.74,-46.92 60.22,-46.47 60.70,-46.02 61.06,-45.47 61.41,-44.92 61.63,-44.30 61.84,-43.68 61.90,-43.02 61.96,-42.37 61.87,-41.72 61.77,-41.07 61.52,-40.46 61.27,-39.85 60.88,-39.32 60.49,-38.79 59.98,-38.37 59.48,-37.95 58.89,-37.66 58.30,-37.37 57.66,-37.23 57.01,-37.10 56.05,-36.84 55.09,-36.58 52.15,-36.24 49.21,-35.90 45.35,-34.69 41.48,-33.48 38.67,-32.64 35.85,-31.79 32.91,-30.38 29.96,-28.97 27.73,-28.03 25.51,-27.10 22.48,-26.11 19.46,-25.12 17.62,-22.70 15.78,-20.28 14.33,-18.50 12.88,-16.73 7.10,-17.74 1.32,-18.75 -0.07,-22.45 -1.48,-26.15 -2.05,-29.23 -2.62,-32.32 -2.26,-36.05 -1.89,-39.78 -0.15,-41.73 1.59,-43.68 5.33,-44.92 9.07,-46.16 11.66,-46.47 14.26,-46.77 16.88,-47.32 19.50,-47.87 21.92,-48.30 24.34,-48.72 27.43,-49.12 30.51,-49.51 32.72,-49.97 34.92,-50.43 38.52,-51.11 42.11,-51.79 48.14,-53.36 54.17,-54.94 57.65,-55.98 61.14,-57.02 64.89,-57.85 68.64,-58.69 70.83,-59.30 73.01,-59.92 74.67,-58.51 76.32,-57.09 76.42,-57.89 76.52,-58.69 76.80,-59.44 77.08,-60.19 77.54,-60.85 77.99,-61.52 78.60,-62.05 79.20,-62.58 79.91,-62.96 80.62,-63.33 81.40,-63.53 82.18,-63.72 82.98,-63.72 83.79,-63.72 84.57,-63.53 85.35,-63.34 86.06,-62.97 86.78,-62.60 87.38,-62.06 87.98,-61.53 88.44,-60.87 88.90,-60.21 89.18,-59.46 89.47,-58.71 89.57,-57.91 89.67,-57.11 89.62,-55.76 89.57,-54.41 88.43,-52.45 87.29,-50.49 89.32,-48.47 91.36,-46.46 93.28,-44.81 95.21,-43.17 98.01,-40.30 100.82,-37.42 101.96,-35.48 103.10,-33.53 102.41,-30.19 101.71,-26.84 98.18,-25.13 94.65,-23.42 90.75,-22.30 86.84,-21.19 83.89,-21.42 80.94,-21.64 78.30,-21.83 75.66,-22.01 72.74,-22.28 69.82,-22.56 67.62,-22.63 65.42,-22.71 62.30,-22.61 59.18,-22.51 55.53,-22.12 51.88,-21.74 47.23,-21.25 42.57,-20.76 40.52,-20.04 38.46,-19.31 34.23,-16.92 30.01,-14.54 21.93,-10.49 13.86,-6.45 8.70,-4.18 3.54,-1.91 -0.78,-0.28 -5.11,1.35 -8.44,2.13 -11.76,2.91 -14.28,2.41 -16.81,1.91 -13.22,0.94 -9.63,-0.02 -10.08,0.50 -10.54,1.02 -11.11,1.42 -11.67,1.83 -12.32,2.08 -12.97,2.33 -13.65,2.42 -14.34,2.52 -15.03,2.44 -15.72,2.36 -16.37,2.13 -17.03,1.89 -17.60,1.50 -18.18,1.11 -18.65,0.60 -19.11,0.08 -19.44,-0.52 -19.77,-1.13 -19.95,-1.80 -20.12,-2.47 -20.13,-3.17 -20.14,-3.86 -19.98,-4.54 -19.82,-5.22 -19.50,-5.83 -19.19,-6.45 -17.38,-8.04 -15.57,-9.63 -14.52,-11.74 -13.48,-13.84 -12.09,-15.70 -10.69,-17.55 -8.64,-20.31 -6.59,-23.07 -4.42,-23.66 -2.25,-24.25 1.05,-24.09 4.35,-23.92 11.23,-23.92 18.10,-23.92 26.30,-24.51 34.51,-25.11 43.87,-26.41 53.23,-27.72 62.62,-29.31 72.01,-30.91 77.91,-31.76 83.81,-32.60 87.75,-32.83 91.69,-33.06 97.00,-33.12 102.30,-33.18 102.92,-33.12 103.55,-33.06 104.14,-32.85 104.74,-32.65 105.26,-32.30 105.79,-31.96 106.22,-31.50 106.65,-31.04 106.95,-30.49 107.26,-29.94 107.42,-29.33 107.59,-28.72 107.61,-28.09 107.62,-27.46 107.49,-26.85 107.35,-26.24 107.07,-25.67 106.79,-25.11 106.39,-24.63 105.98,-24.15 105.47,-23.78 104.96,-23.41 104.38,-23.17 103.80,-22.93 103.18,-22.84 102.55,-22.75 99.72,-22.88 96.89,-23.01 93.10,-22.93 89.31,-22.85 86.69,-22.36 84.07,-21.86 78.00,-20.89 71.94,-19.93 67.01,-19.40 62.08,-18.87 59.32,-18.67 56.55,-18.46 52.97,-17.54 49.39,-16.61 43.81,-14.92 38.24,-13.23 31.70,-10.63 25.16,-8.04 18.26,-4.62 11.36,-1.21 6.56,1.26 1.76,3.74 1.28,3.90 0.81,4.06 0.31,4.10 -0.18,4.13 -0.67,4.05 -1.16,3.97 -1.62,3.77 -2.08,3.58 -2.48,3.28 -2.87,2.97 -3.19,2.59 -3.50,2.20 -3.72,1.75 -3.93,1.29 -4.03,0.80 -4.13,0.31 -4.10,-0.17 -4.08,-0.67 -3.94,-1.15 -3.80,-1.63 -3.55,-2.06 -3.30,-2.49 -2.95,-2.85 -2.60,-3.21 -2.18,-3.48 -1.76,-3.74 -1.76,-3.74 L -1.76,-3.74 Z"></path></g><g transform="translate(799 202) rotate(0 0.00004999999998744897 0.00004999999998744897)" stroke="none"><path fill="#1e1e1e" d="M 3.14,-3.14 Q 3.14,-3.14 3.55,-2.55 3.97,-1.97 4.18,-1.28 4.40,-0.59 4.38,0.11 4.36,0.83 4.11,1.51 3.86,2.18 3.41,2.74 2.96,3.30 2.36,3.69 1.75,4.08 1.05,4.25 0.36,4.42 -0.35,4.36 -1.07,4.31 -1.73,4.02 -2.39,3.74 -2.92,3.26 -3.46,2.78 -3.81,2.15 -4.16,1.53 -4.30,0.82 -4.43,0.11 -4.34,-0.59 -4.24,-1.30 -3.92,-1.94 -3.60,-2.59 -3.09,-3.09 -2.59,-3.60 -1.94,-3.92 -1.30,-4.24 -0.59,-4.34 0.12,-4.43 0.82,-4.30 1.53,-4.16 2.15,-3.81 2.78,-3.46 3.26,-2.92 3.74,-2.39 4.02,-1.73 4.31,-1.07 4.36,-0.35 4.42,0.36 4.25,1.05 4.07,1.75 3.69,2.36 3.30,2.96 2.74,3.41 2.18,3.86 1.51,4.11 0.83,4.36 0.11,4.38 -0.60,4.40 -1.28,4.18 -1.97,3.97 -2.55,3.55 -3.14,3.13 -3.14,3.14 -3.14,3.14 -3.47,2.71 -3.80,2.29 -4.02,1.80 -4.24,1.32 -4.33,0.79 -4.43,0.26 -4.40,-0.26 -4.36,-0.80 -4.20,-1.31 -4.04,-1.82 -3.77,-2.28 -3.49,-2.73 -3.11,-3.11 -2.73,-3.49 -2.28,-3.77 -1.82,-4.05 -1.31,-4.20 -0.80,-4.36 -0.26,-4.40 0.26,-4.43 0.79,-4.33 1.32,-4.24 1.80,-4.02 2.29,-3.80 2.71,-3.47 3.14,-3.14 3.14,-3.14 L 3.14,-3.14 Z"></path></g><g transform="translate(839 199) rotate(0 0.00004999999998744897 0.00004999999998744897)" stroke="none"><path fill="#1e1e1e" d="M 3.14,-3.14 Q 3.14,-3.14 3.55,-2.55 3.97,-1.97 4.18,-1.28 4.40,-0.59 4.38,0.11 4.36,0.83 4.11,1.51 3.86,2.18 3.41,2.74 2.96,3.30 2.36,3.69 1.75,4.08 1.05,4.25 0.36,4.42 -0.35,4.36 -1.07,4.31 -1.73,4.02 -2.39,3.74 -2.92,3.26 -3.46,2.78 -3.81,2.15 -4.16,1.53 -4.30,0.82 -4.43,0.11 -4.34,-0.59 -4.24,-1.30 -3.92,-1.94 -3.60,-2.59 -3.09,-3.09 -2.59,-3.60 -1.94,-3.92 -1.30,-4.24 -0.59,-4.34 0.12,-4.43 0.82,-4.30 1.53,-4.16 2.15,-3.81 2.78,-3.46 3.26,-2.92 3.74,-2.39 4.02,-1.73 4.31,-1.07 4.36,-0.35 4.42,0.36 4.25,1.05 4.07,1.75 3.69,2.36 3.30,2.96 2.74,3.41 2.18,3.86 1.51,4.11 0.83,4.36 0.11,4.38 -0.60,4.40 -1.28,4.18 -1.97,3.97 -2.55,3.55 -3.14,3.13 -3.14,3.14 -3.14,3.14 -3.47,2.71 -3.80,2.29 -4.02,1.80 -4.24,1.32 -4.33,0.79 -4.43,0.26 -4.40,-0.26 -4.36,-0.80 -4.20,-1.31 -4.04,-1.82 -3.77,-2.28 -3.49,-2.73 -3.11,-3.11 -2.73,-3.49 -2.28,-3.77 -1.82,-4.05 -1.31,-4.20 -0.80,-4.36 -0.26,-4.40 0.26,-4.43 0.79,-4.33 1.32,-4.24 1.80,-4.02 2.29,-3.80 2.71,-3.47 3.14,-3.14 3.14,-3.14 L 3.14,-3.14 Z"></path></g><g transform="translate(812 235) rotate(0 16 0.5)" stroke="none"><path fill="#1e1e1e" d="M 0.51,-5.17 Q 0.51,-5.17 3.38,-4.85 6.26,-4.54 9.91,-4.52 13.57,-4.49 15.97,-4.61 18.36,-4.72 20.80,-4.89 23.23,-5.06 25.65,-5.19 28.07,-5.33 30.03,-5.36 32.00,-5.39 33.02,-5.22 34.04,-5.05 34.95,-4.57 35.86,-4.08 36.57,-3.33 37.29,-2.58 37.72,-1.64 38.15,-0.70 38.27,0.31 38.38,1.34 38.15,2.35 37.93,3.36 37.40,4.25 36.87,5.13 36.08,5.80 35.29,6.47 34.33,6.85 33.37,7.24 32.34,7.29 31.30,7.35 30.31,7.07 29.31,6.80 28.45,6.21 27.60,5.63 26.97,4.81 26.35,3.99 26.02,3.01 25.69,2.03 25.69,0.99 25.69,-0.03 26.02,-1.01 26.35,-1.99 26.97,-2.81 27.60,-3.64 28.46,-4.22 29.31,-4.80 30.31,-5.07 31.31,-5.35 32.34,-5.29 33.37,-5.24 34.33,-4.85 35.29,-4.47 36.08,-3.80 36.87,-3.13 37.40,-2.25 37.93,-1.36 38.15,-0.35 38.38,0.65 38.26,1.68 38.15,2.71 37.72,3.64 37.28,4.58 36.57,5.33 35.86,6.08 34.95,6.57 34.03,7.05 33.01,7.22 31.99,7.39 31.99,7.39 31.99,7.39 29.41,7.33 26.83,7.27 23.95,7.08 21.07,6.90 18.51,6.72 15.95,6.54 12.78,6.31 9.61,6.08 7.42,5.88 5.23,5.69 2.36,5.43 -0.51,5.17 -1.12,5.03 -1.73,4.89 -2.30,4.61 -2.86,4.33 -3.33,3.93 -3.81,3.52 -4.18,3.02 -4.55,2.51 -4.78,1.93 -5.01,1.35 -5.10,0.72 -5.19,0.10 -5.13,-0.51 -5.07,-1.13 -4.86,-1.72 -4.65,-2.31 -4.30,-2.84 -3.96,-3.36 -3.50,-3.78 -3.04,-4.21 -2.49,-4.51 -1.94,-4.81 -1.34,-4.98 -0.73,-5.14 -0.10,-5.15 0.51,-5.17 0.51,-5.17 L 0.51,-5.17 Z"></path></g><g stroke-linecap="round" transform="translate(275 751) rotate(0 573 296)"><path d="M32 0 C368.28 -3.29, 706.08 -2.54, 1114 0 M32 0 C430.7 -2.57, 830.12 -2.26, 1114 0 M1114 0 C1134.26 1.75, 1145.23 11.21, 1146 32 M1114 0 C1135.36 0.11, 1148.27 10.92, 1146 32 M1146 32 C1147.18 241.29, 1146.31 450.68, 1146 560 M1146 32 C1145.41 147.99, 1145.77 264.66, 1146 560 M1146 560 C1146.44 583.25, 1136.48 592.05, 1114 592 M1146 560 C1146.13 580.09, 1135.62 592.18, 1114 592 M1114 592 C709.63 590.78, 304.11 591.58, 32 592 M1114 592 C733.86 594.69, 353.3 595.04, 32 592 M32 592 C10.47 591.81, -0.87 581.08, 0 560 M32 592 C9.6 590.24, -1.86 581.18, 0 560 M0 560 C2.38 356.28, 2.48 151.54, 0 32 M0 560 C1.1 401.84, 1.02 243.66, 0 32 M0 32 C1.18 11.08, 11.7 0.45, 32 0 M0 32 C-1.93 10.19, 12.1 0.36, 32 0" stroke="#1e1e1e" stroke-width="2" fill="none"></path></g><g transform="translate(1038 213) rotate(0 227.59165954589844 22.5)"><text x="0" y="0" font-family="Virgil, Segoe UI Emoji" font-size="36px" fill="#1e1e1e" text-anchor="start" style="white-space: pre;" direction="ltr" dominant-baseline="text-before-edge">make all this look russian</text></g><g transform="translate(752.8000030517578 779.5) rotate(0 86.19999694824219 22.5)"><text x="0" y="0" font-family="Virgil, Segoe UI Emoji" font-size="36px" fill="#1e1e1e" text-anchor="start" style="white-space: pre;" direction="ltr" dominant-baseline="text-before-edge">Quiz-Czar</text></g><g stroke-linecap="round" transform="translate(590 858) rotate(0 44 22)"><path d="M11 0 C30.06 -0.77, 45.97 -1.37, 77 0 M11 0 C30.53 -0.36, 49.98 0.44, 77 0 M77 0 C83.89 0.29, 88.02 3.52, 88 11 M77 0 C85.36 -1.17, 87.29 2.05, 88 11 M88 11 C88.89 17.34, 87.2 27.2, 88 33 M88 11 C87.24 16.06, 87.5 20.67, 88 33 M88 33 C87.17 39.35, 83.69 44.31, 77 44 M88 33 C90.16 41.52, 83.36 46.1, 77 44 M77 44 C54.82 43.27, 33.51 43.62, 11 44 M77 44 C59.51 44.15, 41.66 43.79, 11 44 M11 44 C2.92 44.13, -1.24 39.07, 0 33 M11 44 C3.4 45.98, -1.98 39.24, 0 33 M0 33 C-0.54 24.59, 1 20.23, 0 11 M0 33 C-0.41 26.6, -0.76 22.45, 0 11 M0 11 C1.32 1.92, 5.66 -1.04, 11 0 M0 11 C0.79 3.58, 5.25 -2.2, 11 0" stroke="#1e1e1e" stroke-width="2" fill="none"></path></g><g transform="translate(402 864) rotate(0 82.61666870117188 12.5)"><text x="0" y="0" font-family="Virgil, Segoe UI Emoji" font-size="20px" fill="#1e1e1e" text-anchor="start" style="white-space: pre;" direction="ltr" dominant-baseline="text-before-edge">Number of games</text></g><g stroke-linecap="round" transform="translate(1145 865) rotate(0 41.5 22)"><path d="M11 0 C23.39 -0.87, 35.6 1.65, 72 0 M11 0 C28.09 0.37, 43.75 -0.73, 72 0 M72 0 C80.33 -1.19, 82.75 3.57, 83 11 M72 0 C78.2 0.82, 85.03 4.05, 83 11 M83 11 C83.73 17.53, 82.71 20.56, 83 33 M83 11 C82.57 17.76, 83.63 22.34, 83 33 M83 33 C82.49 40.59, 79.71 42.01, 72 44 M83 33 C81.99 41.76, 79.66 44.42, 72 44 M72 44 C51.88 42.5, 29.68 45.44, 11 44 M72 44 C48.06 43.6, 24.02 43.55, 11 44 M11 44 C4.84 42.24, 0.08 40.72, 0 33 M11 44 C5.47 42.5, 0.18 40.98, 0 33 M0 33 C1.79 25.3, 0.74 20.06, 0 11 M0 33 C0.22 25.61, -0.88 19.71, 0 11 M0 11 C-0.2 5.63, 1.94 0.01, 11 0 M0 11 C-0.56 3.38, 4.12 -0.96, 11 0" stroke="#1e1e1e" stroke-width="2" fill="none"></path></g><g transform="translate(874 873) rotate(0 95.29166412353516 12.5)"><text x="0" y="0" font-family="Virgil, Segoe UI Emoji" font-size="20px" fill="#1e1e1e" text-anchor="start" style="white-space: pre;" direction="ltr" dominant-baseline="text-before-edge">Questions per game</text></g><g stroke-linecap="round" transform="translate(1150 938) rotate(0 38.5 20.5)"><path d="M10.25 0 C26.99 2.31, 45.05 0.8, 66.75 0 M10.25 0 C26.1 0.12, 43.12 -0.33, 66.75 0 M66.75 0 C71.97 1.16, 76.3 5.21, 77 10.25 M66.75 0 C75.79 -2.17, 76.34 4.32, 77 10.25 M77 10.25 C76.2 17.25, 78.52 24.7, 77 30.75 M77 10.25 C77.83 15.53, 76.44 19.74, 77 30.75 M77 30.75 C77.4 38.09, 73.73 42.27, 66.75 41 M77 30.75 C76.86 35.62, 72.18 41.38, 66.75 41 M66.75 41 C48.33 38.98, 32.03 39.47, 10.25 41 M66.75 41 C52.08 40.83, 38.09 40.29, 10.25 41 M10.25 41 C5.16 42.34, -1.62 38.79, 0 30.75 M10.25 41 C2.4 39.59, -1.45 39.05, 0 30.75 M0 30.75 C0.58 23.19, 0.31 17.39, 0 10.25 M0 30.75 C0.71 21.99, -0.23 15.2, 0 10.25 M0 10.25 C1.54 5.22, 1.98 1.87, 10.25 0 M0 10.25 C-0.56 1.21, 3.84 0.57, 10.25 0" stroke="#1e1e1e" stroke-width="2" fill="none"></path></g><g transform="translate(443 957) rotate(0 45.57500076293945 12.5)"><text x="0" y="0" font-family="Virgil, Segoe UI Emoji" font-size="20px" fill="#1e1e1e" text-anchor="start" style="white-space: pre;" direction="ltr" dominant-baseline="text-before-edge">Difficulty</text></g><g stroke-linecap="round" transform="translate(591 942) rotate(0 41 22)"><path d="M11 0 C30.07 1.36, 54.08 0.2, 71 0 M11 0 C34.49 -0.41, 59 -0.51, 71 0 M71 0 C80.14 -0.76, 83.2 1.92, 82 11 M71 0 C79.7 1.62, 82.99 3.01, 82 11 M82 11 C82.51 18.11, 80.91 22.88, 82 33 M82 11 C82.29 18.23, 81.04 24.85, 82 33 M82 33 C81.31 40.88, 76.67 42.55, 71 44 M82 33 C82.02 39.19, 76.63 42.22, 71 44 M71 44 C49.07 41.88, 28.43 41.87, 11 44 M71 44 C47.16 45.31, 24.9 45.27, 11 44 M11 44 C2.42 42.57, -0.45 39.14, 0 33 M11 44 C4.73 44.26, 0.58 39.02, 0 33 M0 33 C-1.47 23.59, 2.04 14.59, 0 11 M0 33 C-0.21 25.54, -0.41 18.49, 0 11 M0 11 C-1.99 5.33, 5.51 1.67, 11 0 M0 11 C0.18 3.58, 1.84 1.79, 11 0" stroke="#1e1e1e" stroke-width="2" fill="none"></path></g><g transform="translate(881 948) rotate(0 43.766666412353516 12.5)"><text x="0" y="0" font-family="Virgil, Segoe UI Emoji" font-size="20px" fill="#1e1e1e" text-anchor="start" style="white-space: pre;" direction="ltr" dominant-baseline="text-before-edge">Category</text></g><g stroke-linecap="round" transform="translate(594 1024) rotate(0 42.5 22)"><path d="M11 0 C30.47 -1.57, 52.86 0.41, 74 0 M11 0 C31.33 0.13, 53.93 0.62, 74 0 M74 0 C82.56 -0.08, 83.78 4.12, 85 11 M74 0 C81.48 -2.19, 86.94 3.44, 85 11 M85 11 C86.46 19.68, 84.63 24.87, 85 33 M85 11 C83.98 19.23, 84.24 26.37, 85 33 M85 33 C83.23 41.47, 80.94 43.98, 74 44 M85 33 C86.69 41.03, 82.73 45.22, 74 44 M74 44 C51.82 45.02, 26.18 43.39, 11 44 M74 44 C53.76 44.2, 35.84 44.62, 11 44 M11 44 C4.44 42.03, -0.5 38.52, 0 33 M11 44 C1.64 44.77, 1.1 39.17, 0 33 M0 33 C-1.45 25.62, -1.52 14.3, 0 11 M0 33 C0.09 29.03, -0.32 23.43, 0 11 M0 11 C1.13 1.74, 2.84 1.69, 11 0 M0 11 C1.66 3.84, 3.84 -1.36, 11 0" stroke="#1e1e1e" stroke-width="2" fill="none"></path></g><g transform="translate(468 1031) rotate(0 23.133333206176758 12.5)"><text x="0" y="0" font-family="Virgil, Segoe UI Emoji" font-size="20px" fill="#1e1e1e" text-anchor="start" style="white-space: pre;" direction="ltr" dominant-baseline="text-before-edge">Type</text></g><g stroke-linecap="round" transform="translate(860.5 1193.5) rotate(0 253.5 64.5)"><path d="M32 0 C153.91 -1.49, 273.83 -2.6, 475 0 M32 0 C159.62 -0.6, 288.15 -0.63, 475 0 M475 0 C497.91 1.52, 507.12 12.08, 507 32 M475 0 C495.65 1.53, 506.83 11.48, 507 32 M507 32 C505.64 55.62, 508.47 80.85, 507 97 M507 32 C508.4 47.79, 507.93 64.56, 507 97 M507 97 C507.16 118.09, 497.89 129.89, 475 129 M507 97 C508.97 117.04, 495.24 128.14, 475 129 M475 129 C334.55 127.27, 195.28 127.03, 32 129 M475 129 C344.3 128.15, 213.98 128.08, 32 129 M32 129 C11.09 130.51, -0.04 119.95, 0 97 M32 129 C8.52 129.31, 1.09 120.03, 0 97 M0 97 C1.79 77.54, 1.52 59.67, 0 32 M0 97 C-0.85 77.6, -0.48 59.63, 0 32 M0 32 C-0.79 9.86, 12.32 -1.89, 32 0 M0 32 C-1.97 8.69, 11.07 -1.72, 32 0" stroke="#1e1e1e" stroke-width="2" fill="none"></path></g><g transform="translate(1051.5 1240.5) rotate(0 43.78333282470703 22.5)"><text x="0" y="0" font-family="Virgil, Segoe UI Emoji" font-size="36px" fill="#1e1e1e" text-anchor="start" style="white-space: pre;" direction="ltr" dominant-baseline="text-before-edge">PLAY</text></g><g transform="translate(1439 873) rotate(0 231.5500030517578 25)"><text x="0" y="0" font-family="Virgil, Segoe UI Emoji" font-size="20px" fill="#1e1e1e" text-anchor="start" style="white-space: pre;" direction="ltr" dominant-baseline="text-before-edge">use an overlay over the main screen/graphics?</text><text x="0" y="25" font-family="Virgil, Segoe UI Emoji" font-size="20px" fill="#1e1e1e" text-anchor="start" style="white-space: pre;" direction="ltr" dominant-baseline="text-before-edge">have opening screen graphics in background still</text></g><g transform="translate(1464.25 534.5) rotate(0 227.40834045410156 12.5)"><text x="0" y="0" font-family="Virgil, Segoe UI Emoji" font-size="20px" fill="#1e1e1e" text-anchor="start" style="white-space: pre;" direction="ltr" dominant-baseline="text-before-edge">use an overlay over the main screen/graphics?</text></g><g stroke-linecap="round"><g transform="translate(1454 559.1847002670384) rotate(0 -161.5 12.907649866480824)"><path d="M0.4 0.02 C-53.58 4.49, -269.57 22.44, -323.34 26.55 M-0.84 -1.01 C-55.07 3.14, -270.84 20.4, -324.46 24.81" stroke="#1e1e1e" stroke-width="2" fill="none"></path></g><g transform="translate(1454 559.1847002670384) rotate(0 -161.5 12.907649866480824)"><path d="M-297.19 12.31 C-306.65 16.19, -314.95 22.39, -324.46 24.81 M-297.19 12.31 C-302.26 15.56, -309.4 18.4, -324.46 24.81" stroke="#1e1e1e" stroke-width="2" fill="none"></path></g><g transform="translate(1454 559.1847002670384) rotate(0 -161.5 12.907649866480824)"><path d="M-295.54 32.77 C-305.53 29.54, -314.4 28.63, -324.46 24.81 M-295.54 32.77 C-300.78 31.78, -308.26 30.38, -324.46 24.81" stroke="#1e1e1e" stroke-width="2" fill="none"></path></g></g><mask></mask><g stroke-linecap="round" transform="translate(368 833) rotate(0 507 249.5)"><path d="M32 0 C375.16 -1.76, 717.21 -1.74, 982 0 M32 0 C262.88 1.91, 494.78 1.89, 982 0 M982 0 C1004.41 1.76, 1014.9 10.68, 1014 32 M982 0 C1001.26 1.42, 1013.85 10.92, 1014 32 M1014 32 C1015.73 197.5, 1015.59 362.8, 1014 467 M1014 32 C1011.59 183.33, 1011.33 334.64, 1014 467 M1014 467 C1015.75 488.38, 1001.94 498.66, 982 499 M1014 467 C1015.87 486.46, 1001.96 498.9, 982 499 M982 499 C704.73 496.47, 429.1 495.92, 32 499 M982 499 C677.25 496.57, 372.27 496.39, 32 499 M32 499 C12.36 497.28, -0.06 487.58, 0 467 M32 499 C12.09 498.9, 0.36 489.91, 0 467 M0 467 C-0.09 371.1, -0.28 274.33, 0 32 M0 467 C1.32 355.04, 1.37 243.33, 0 32 M0 32 C-0.05 11.77, 10.18 1.42, 32 0 M0 32 C1.26 9.11, 10.41 -0.45, 32 0" stroke="#1e1e1e" stroke-width="2" fill="none"></path></g><g stroke-linecap="round"><g transform="translate(1475 928) rotate(0 -38.5 33.5)"><path d="M-0.05 -1.04 C-12.6 10.35, -62.83 56.35, -75.84 67.53 M-1.53 1.03 C-14.09 12.13, -63.81 54.72, -76.18 65.69" stroke="#1e1e1e" stroke-width="1" fill="none"></path></g><g transform="translate(1475 928) rotate(0 -38.5 33.5)"><path d="M-61.64 39.44 C-67.28 48.09, -68.39 51.04, -76.18 65.69 M-61.64 39.44 C-65.44 44.61, -68.5 51.27, -76.18 65.69" stroke="#1e1e1e" stroke-width="1" fill="none"></path></g><g transform="translate(1475 928) rotate(0 -38.5 33.5)"><path d="M-48.18 54.93 C-57.16 59.6, -61.72 58.58, -76.18 65.69 M-48.18 54.93 C-54.85 56.8, -60.85 60.08, -76.18 65.69" stroke="#1e1e1e" stroke-width="1" fill="none"></path></g></g><mask></mask><g stroke-linecap="round" transform="translate(274 1390) rotate(0 575 323.5)"><path d="M32 0 C261.32 -2.21, 491.16 -2.08, 1118 0 M32 0 C434.63 -0.47, 836.3 -0.25, 1118 0 M1118 0 C1140.38 -1.77, 1151.77 9.44, 1150 32 M1118 0 C1140.11 -0.63, 1147.81 9.99, 1150 32 M1150 32 C1148.85 258.78, 1148.81 486.1, 1150 615 M1150 32 C1151.7 192.57, 1151.5 353.04, 1150 615 M1150 615 C1150.43 634.37, 1141 647.81, 1118 647 M1150 615 C1150.44 637.85, 1139.22 645.49, 1118 647 M1118 647 C789.99 648.18, 463.63 648.48, 32 647 M1118 647 C888.91 643.67, 659.24 644.02, 32 647 M32 647 C10.39 645.72, -1.48 636.55, 0 615 M32 647 C11.37 648.02, 0.71 637.98, 0 615 M0 615 C-2.23 473.66, -1.75 333.17, 0 32 M0 615 C2.41 483.93, 2.19 353.01, 0 32 M0 32 C1.26 10.89, 9.35 0.38, 32 0 M0 32 C-0.24 9.33, 9.46 -0.55, 32 0" stroke="#1e1e1e" stroke-width="1" fill="none"></path></g><g transform="translate(735.8000030517578 1419.75) rotate(0 86.19999694824219 22.5)"><text x="0" y="0" font-family="Virgil, Segoe UI Emoji" font-size="36px" fill="#1e1e1e" text-anchor="start" style="white-space: pre;" direction="ltr" dominant-baseline="text-before-edge">Quiz-Czar</text></g><g stroke-linecap="round" transform="translate(351 1473.25) rotate(0 507 249.5)"><path d="M32 0 C399.84 -2.08, 767.89 -1.58, 982 0 M32 0 C236.69 -1.04, 441.81 -1.16, 982 0 M982 0 C1003.12 -0.13, 1015.37 10.31, 1014 32 M982 0 C1003.13 0.64, 1014.27 9.24, 1014 32 M1014 32 C1012.68 152.26, 1013.34 272.96, 1014 467 M1014 32 C1012.56 135.62, 1012.69 240.6, 1014 467 M1014 467 C1013.05 489.09, 1005.02 498.11, 982 499 M1014 467 C1014.1 488.19, 1003.08 500.94, 982 499 M982 499 C727.75 502.89, 473.98 502.61, 32 499 M982 499 C617.75 496.86, 253.02 496.84, 32 499 M32 499 C11.17 499.86, -0.88 488.52, 0 467 M32 499 C9.93 497.3, -0.45 486.72, 0 467 M0 467 C-2.6 328.06, -1.88 187.58, 0 32 M0 467 C0.13 353.87, 0.21 240.87, 0 32 M0 32 C-1.55 12.1, 12.11 -1.95, 32 0 M0 32 C-1.09 10.08, 9.37 -2.09, 32 0" stroke="#1e1e1e" stroke-width="2" fill="none"></path></g><g stroke-linecap="round" transform="translate(399.5 1819.5) rotate(0 253.5 64.5)"><path d="M32 0 C177.34 0.87, 322.61 1.18, 475 0 C497.16 3.42, 508.11 11.93, 507 32 C506.29 55.4, 507.54 83.87, 507 97 C503.54 121.39, 495.44 128.48, 475 129 C345.48 125.75, 211.58 125.97, 32 129 C11.1 127.45, -1.23 120.43, 0 97 C-1.14 76.1, 0.01 63.31, 0 32 C1.15 7.19, 9.21 0.57, 32 0" stroke="none" stroke-width="0" fill="#b2f2bb"></path><path d="M32 0 C192.93 -1.04, 355.44 -0.64, 475 0 M32 0 C171.65 -0.73, 312.3 -0.57, 475 0 M475 0 C498 0.35, 505.6 9.3, 507 32 M475 0 C495.36 2.11, 509.12 8.45, 507 32 M507 32 C508.47 48.6, 508.14 66.95, 507 97 M507 32 C506.28 45.53, 505.92 58.74, 507 97 M507 97 C507.92 118.9, 498.06 128.99, 475 129 M507 97 C507.24 117.63, 496.73 130.72, 475 129 M475 129 C322.57 126.87, 168.32 127.7, 32 129 M475 129 C323.52 126.83, 171.89 126.68, 32 129 M32 129 C10.21 129.58, 0.19 117.28, 0 97 M32 129 C11.72 127.54, 0.88 120.18, 0 97 M0 97 C0.75 82.97, 1.05 68.19, 0 32 M0 97 C-0.27 82.07, 0.96 67.07, 0 32 M0 32 C-0.71 10.82, 11.38 1.89, 32 0 M0 32 C-1.4 11.79, 12.15 -1.84, 32 0" stroke="#1e1e1e" stroke-width="2" fill="none"></path></g><g transform="translate(626.216667175293 1866.5) rotate(0 27.266666412353516 22.5)"><text x="0" y="0" font-family="Virgil, Segoe UI Emoji" font-size="36px" fill="#1e1e1e" text-anchor="start" style="white-space: pre;" direction="ltr" dominant-baseline="text-before-edge">GO</text></g><g transform="translate(662.8000030517578 1581.5) rotate(0 142.71665954589844 22.5)"><text x="0" y="0" font-family="Virgil, Segoe UI Emoji" font-size="36px" fill="#1e1e1e" text-anchor="start" style="white-space: pre;" direction="ltr" dominant-baseline="text-before-edge">Starting Game 1</text></g><g stroke-linecap="round" transform="translate(1105 1830) rotate(0 104 52.5)"><path d="M26.25 0 C68.17 0.53, 107.7 0.82, 181.75 0 C196.52 -1.73, 210.37 9.51, 208 26.25 C210.99 43.22, 207.3 63.81, 208 78.75 C211.15 93.44, 196 107.21, 181.75 105 C136.99 104.86, 93.17 105.64, 26.25 105 C6.92 104.56, 1.96 95.12, 0 78.75 C3.1 61.87, 2.94 51.39, 0 26.25 C1.53 11.99, 12.02 1.63, 26.25 0" stroke="none" stroke-width="0" fill="#ffc9c9"></path><path d="M26.25 0 C79.2 -1.88, 130.53 -1.31, 181.75 0 M26.25 0 C58.88 2.28, 90.03 2.16, 181.75 0 M181.75 0 C199.59 1.28, 207.15 8.35, 208 26.25 M181.75 0 C199.04 0.77, 209.28 6.5, 208 26.25 M208 26.25 C207.01 39.4, 209.92 54.95, 208 78.75 M208 26.25 C208.82 40.41, 208.42 52.74, 208 78.75 M208 78.75 C206.54 98.21, 197.55 104.93, 181.75 105 M208 78.75 C208.29 93.98, 199.79 103.29, 181.75 105 M181.75 105 C123.45 104, 65.03 106.12, 26.25 105 M181.75 105 C145.84 105.23, 110.95 106.51, 26.25 105 M26.25 105 C8.21 104.68, -1.9 97.63, 0 78.75 M26.25 105 C6.64 103.07, -1.45 98.39, 0 78.75 M0 78.75 C0.47 67.18, 1.76 54.79, 0 26.25 M0 78.75 C-0.16 59.34, 0.67 40.19, 0 26.25 M0 26.25 C-1.64 9.55, 8.32 -1.94, 26.25 0 M0 26.25 C-1.96 8.21, 6.7 -2.25, 26.25 0" stroke="#1e1e1e" stroke-width="1" fill="none"></path></g><g transform="translate(1179.7333335876465 1866.5) rotate(0 34.07500076293945 22.5)"><text x="0" y="0" font-family="Virgil, Segoe UI Emoji" font-size="36px" fill="#1e1e1e" text-anchor="start" style="white-space: pre;" direction="ltr" dominant-baseline="text-before-edge">exit</text></g><g stroke-linecap="round" transform="translate(271 2096.5) rotate(0 575 323.5)"><path d="M32 0 C413.84 3.03, 795.28 3.17, 1118 0 M32 0 C285.98 -1.6, 540.05 -2.17, 1118 0 M1118 0 C1141.17 -0.7, 1148.62 8.87, 1150 32 M1118 0 C1138.63 0.8, 1151.63 11.92, 1150 32 M1150 32 C1152.33 182.31, 1151.45 331.05, 1150 615 M1150 32 C1151.04 192.74, 1151.09 354.16, 1150 615 M1150 615 C1148.3 638.16, 1139.46 646.01, 1118 647 M1150 615 C1149.87 636.46, 1140.57 647.2, 1118 647 M1118 647 C711.77 647.47, 306.77 648.25, 32 647 M1118 647 C745.66 647.31, 372.44 646.94, 32 647 M32 647 C9.05 646.55, -1.81 635.09, 0 615 M32 647 C10.8 645.03, -2 635.79, 0 615 M0 615 C-2.13 494.57, -1.34 375.88, 0 32 M0 615 C0.35 498.47, -0.34 381.14, 0 32 M0 32 C1.39 12.49, 12.01 0.98, 32 0 M0 32 C2.29 9.31, 11.1 0.79, 32 0" stroke="#1e1e1e" stroke-width="1" fill="none"></path></g><g transform="translate(732.8000030517578 2126.25) rotate(0 86.19999694824219 22.5)"><text x="0" y="0" font-family="Virgil, Segoe UI Emoji" font-size="36px" fill="#1e1e1e" text-anchor="start" style="white-space: pre;" direction="ltr" dominant-baseline="text-before-edge">Quiz-Czar</text></g><g stroke-linecap="round" transform="translate(348 2179.75) rotate(0 507 249.5)"><path d="M32 0 C295.05 0.55, 559.52 0.44, 982 0 M32 0 C393.31 2.3, 753.61 2.08, 982 0 M982 0 C1002.72 0.69, 1015.41 11.76, 1014 32 M982 0 C1002.34 1.58, 1013.43 12.76, 1014 32 M1014 32 C1013.35 192.37, 1013.81 352.91, 1014 467 M1014 32 C1015.57 120.07, 1016.03 206.96, 1014 467 M1014 467 C1013.88 488.45, 1004.41 499.17, 982 499 M1014 467 C1015.69 486.92, 1003.89 497.45, 982 499 M982 499 C766.33 499.49, 550.04 500.54, 32 499 M982 499 C701.46 495.25, 421.2 495.09, 32 499 M32 499 C10.78 497.29, -1.74 487.86, 0 467 M32 499 C8.49 500.46, -0.11 486.47, 0 467 M0 467 C-1.4 378.76, -1.37 291.38, 0 32 M0 467 C2.34 297.78, 2.33 127.89, 0 32 M0 32 C1.99 9.48, 11.04 0.69, 32 0 M0 32 C-2.22 8.64, 11.29 0.05, 32 0" stroke="#1e1e1e" stroke-width="2" fill="none"></path></g><g transform="translate(1415.5419748896966 1695.7350325051693) rotate(0 231.5500030517578 25)"><text x="0" y="0" font-family="Virgil, Segoe UI Emoji" font-size="20px" fill="#1e1e1e" text-anchor="start" style="white-space: pre;" direction="ltr" dominant-baseline="text-before-edge">use an overlay over the main screen/graphics?</text><text x="0" y="25" font-family="Virgil, Segoe UI Emoji" font-size="20px" fill="#1e1e1e" text-anchor="start" style="white-space: pre;" direction="ltr" dominant-baseline="text-before-edge">have opening screen graphics in background still</text></g><g stroke-linecap="round"><g transform="translate(1451.5419748896966 1750.7350325051693) rotate(0 -38.5 33.5)"><path d="M-0.72 -0.61 C-13.58 10.57, -64.19 54.82, -76.9 66.1 M1.11 1.68 C-11.94 13.08, -64.66 56.05, -77.79 67.16" stroke="#1e1e1e" stroke-width="1" fill="none"></path></g><g transform="translate(1451.5419748896966 1750.7350325051693) rotate(0 -38.5 33.5)"><path d="M-62.64 41.27 C-68.82 49.79, -74.24 58.14, -77.79 67.16 M-62.64 41.27 C-66.14 48.31, -72.04 57.1, -77.79 67.16" stroke="#1e1e1e" stroke-width="1" fill="none"></path></g><g transform="translate(1451.5419748896966 1750.7350325051693) rotate(0 -38.5 33.5)"><path d="M-49.54 57.07 C-59.86 60.36, -69.55 63.56, -77.79 67.16 M-49.54 57.07 C-57.08 59.2, -66.96 63.19, -77.79 67.16" stroke="#1e1e1e" stroke-width="1" fill="none"></path></g></g><mask></mask><g transform="translate(537.2833404541016 2246.5) rotate(0 302.4083251953125 22.5)"><text x="0" y="0" font-family="Virgil, Segoe UI Emoji" font-size="36px" fill="#1e1e1e" text-anchor="start" style="white-space: pre;" direction="ltr" dominant-baseline="text-before-edge">What is the capital of Australia?</text></g><g stroke-linecap="round" transform="translate(409 2335) rotate(0 203.5 30.5)"><path d="M15.25 0 C126.25 0.42, 234.92 0.2, 391.75 0 M15.25 0 C121.4 -1.78, 228.16 -1.15, 391.75 0 M391.75 0 C401.4 -0.78, 407.15 4.41, 407 15.25 M391.75 0 C400.42 -0.7, 408.45 3.86, 407 15.25 M407 15.25 C407.78 20.85, 405.76 31.6, 407 45.75 M407 15.25 C407.29 21.59, 407.51 28.53, 407 45.75 M407 45.75 C406.63 55.35, 402.39 61.89, 391.75 61 M407 45.75 C406.56 54.4, 402.29 62.48, 391.75 61 M391.75 61 C287.2 59.87, 184.58 60, 15.25 61 M391.75 61 C264.44 62.41, 136.25 62.1, 15.25 61 M15.25 61 C4.85 62.25, -1.63 54.72, 0 45.75 M15.25 61 C5.01 62.78, -1.81 55.11, 0 45.75 M0 45.75 C0.54 40.21, -0.35 33.74, 0 15.25 M0 45.75 C-0.53 37.4, -0.21 29.73, 0 15.25 M0 15.25 C0.67 4.66, 3.32 1.97, 15.25 0 M0 15.25 C1.68 3.95, 5.87 -2, 15.25 0" stroke="#1e1e1e" stroke-width="1" fill="none"></path></g><g transform="translate(568.908332824707 2353) rotate(0 43.59166717529297 12.5)"><text x="43.59166717529297" y="0" font-family="Virgil, Segoe UI Emoji" font-size="20px" fill="#1e1e1e" text-anchor="middle" style="white-space: pre;" direction="ltr" dominant-baseline="text-before-edge">Canberra</text></g><g stroke-linecap="round" transform="translate(865.5 2427.5) rotate(0 205.5 30.5)"><path d="M15.25 0 C143.94 -1.73, 270.44 0.27, 395.75 0 M15.25 0 C160.24 -0.37, 305.33 -0.13, 395.75 0 M395.75 0 C406.57 -0.15, 411.48 6.48, 411 15.25 M395.75 0 C403.67 2.23, 408.93 3.83, 411 15.25 M411 15.25 C409.97 25.92, 410.35 37.1, 411 45.75 M411 15.25 C410.8 25.79, 410.93 34.55, 411 45.75 M411 45.75 C412.14 56.38, 403.94 59.92, 395.75 61 M411 45.75 C410.18 55.42, 408.09 61.8, 395.75 61 M395.75 61 C307.57 64.04, 218.09 62.79, 15.25 61 M395.75 61 C305.21 61.24, 215.99 61.25, 15.25 61 M15.25 61 C5.93 60.66, -1.55 57.12, 0 45.75 M15.25 61 C7.33 62.85, 0.87 57.76, 0 45.75 M0 45.75 C-0.98 33.3, 1.36 23.34, 0 15.25 M0 45.75 C0.2 38.86, 0.4 31.85, 0 15.25 M0 15.25 C-0.54 6.49, 6.67 1.58, 15.25 0 M0 15.25 C-2.19 5.73, 4.22 -0.9, 15.25 0" stroke="#1e1e1e" stroke-width="1" fill="none"></path></g><g transform="translate(1027.841667175293 2445.5) rotate(0 43.15833282470703 12.5)"><text x="43.15833282470703" y="0" font-family="Virgil, Segoe UI Emoji" font-size="20px" fill="#1e1e1e" text-anchor="middle" style="white-space: pre;" direction="ltr" dominant-baseline="text-before-edge">Shorewell</text></g><g stroke-linecap="round" transform="translate(410.5 2427.5) rotate(0 203.5 30.5)"><path d="M15.25 0 C158.83 -0.21, 302.62 0.26, 391.75 0 M15.25 0 C140.97 -1.14, 266.44 -1.09, 391.75 0 M391.75 0 C400.83 0.58, 408.78 4.04, 407 15.25 M391.75 0 C400.42 0.72, 405.94 7.12, 407 15.25 M407 15.25 C406.78 26.75, 407.04 34.67, 407 45.75 M407 15.25 C406.53 25.79, 406.85 37.98, 407 45.75 M407 45.75 C407.69 54.57, 403.4 62.71, 391.75 61 M407 45.75 C407.8 58, 401.01 60.69, 391.75 61 M391.75 61 C301.7 61.03, 214.3 61.06, 15.25 61 M391.75 61 C263.31 59.82, 134.62 59.46, 15.25 61 M15.25 61 C6.69 62.3, -0.26 54.32, 0 45.75 M15.25 61 C3.91 59.47, 1.52 55.74, 0 45.75 M0 45.75 C0.12 38.74, 0.52 31.48, 0 15.25 M0 45.75 C0.57 36.47, 0.07 28.71, 0 15.25 M0 15.25 C-0.78 6.53, 6.15 -1.41, 15.25 0 M0 15.25 C-1.27 6.82, 6.75 1.47, 15.25 0" stroke="#1e1e1e" stroke-width="1" fill="none"></path></g><g transform="translate(581.25 2445.5) rotate(0 32.75 12.5)"><text x="32.75" y="0" font-family="Virgil, Segoe UI Emoji" font-size="20px" fill="#1e1e1e" text-anchor="middle" style="white-space: pre;" direction="ltr" dominant-baseline="text-before-edge">Hobart</text></g><g stroke-linecap="round" transform="translate(861.5 2332.5) rotate(0 209 30.5)"><path d="M15.25 0 C145.03 -1.7, 274.31 -1.6, 402.75 0 M15.25 0 C110.09 -2.41, 205.72 -2.3, 402.75 0 M402.75 0 C414.69 0.29, 416.84 3.29, 418 15.25 M402.75 0 C412.86 2.19, 418.24 5.36, 418 15.25 M418 15.25 C416.99 25.43, 417.64 38.92, 418 45.75 M418 15.25 C418.65 25.8, 418.7 35.26, 418 45.75 M418 45.75 C417.73 54.65, 414.56 61.39, 402.75 61 M418 45.75 C416.27 55.14, 414.48 60.28, 402.75 61 M402.75 61 C270.89 60.38, 138.55 59.68, 15.25 61 M402.75 61 C254.94 60.41, 107.67 61.1, 15.25 61 M15.25 61 C4.93 59.44, -1.82 54.2, 0 45.75 M15.25 61 C4.9 60.72, 0.28 55.07, 0 45.75 M0 45.75 C1.36 35.52, 0.35 28.34, 0 15.25 M0 45.75 C-0.92 37.24, 0.54 30.55, 0 15.25 M0 15.25 C1.28 5.06, 5.71 -1.06, 15.25 0 M0 15.25 C1.48 3.41, 4.41 1.66, 15.25 0" stroke="#1e1e1e" stroke-width="1" fill="none"></path></g><g transform="translate(1003.8833312988281 2350.5) rotate(0 66.61666870117188 12.5)"><text x="66.61666870117188" y="0" font-family="Virgil, Segoe UI Emoji" font-size="20px" fill="#1e1e1e" text-anchor="middle" style="white-space: pre;" direction="ltr" dominant-baseline="text-before-edge">Wagga Wagga</text></g><g transform="translate(588.5916748046875 2593.5) rotate(0 208.9166717529297 17.5)"><text x="0" y="0" font-family="Virgil, Segoe UI Emoji" font-size="28px" fill="#1e1e1e" text-anchor="start" style="white-space: pre;" direction="ltr" dominant-baseline="text-before-edge">    Question 1/10    Game 1/5</text></g><g stroke-linecap="round" transform="translate(283 3519.5) rotate(0 575 323.5)"><path d="M32 0 C394.66 3.61, 757.01 3.13, 1118 0 M32 0 C359.55 -0.85, 686.65 -1.43, 1118 0 M1118 0 C1141.3 -1.95, 1149.86 10.26, 1150 32 M1118 0 C1138.68 -2.08, 1151.38 12.56, 1150 32 M1150 32 C1148.52 183.56, 1148.59 336, 1150 615 M1150 32 C1149.46 250.82, 1149.39 469.56, 1150 615 M1150 615 C1150.95 636.54, 1137.41 645.5, 1118 647 M1150 615 C1150.51 636.31, 1141.54 648.33, 1118 647 M1118 647 C860.07 647.41, 600.96 647.47, 32 647 M1118 647 C684.62 649.92, 251.61 649.8, 32 647 M32 647 C9.09 647.78, 0.43 636.49, 0 615 M32 647 C8.6 645.36, 0.63 638.24, 0 615 M0 615 C-2.99 452.07, -2.79 288.22, 0 32 M0 615 C0.41 417.28, 0.6 218.62, 0 32 M0 32 C-1.13 11.53, 11.9 1.4, 32 0 M0 32 C-1.51 9.18, 11.42 -0.16, 32 0" stroke="#1e1e1e" stroke-width="1" fill="none"></path></g><g transform="translate(744.8000030517578 3549.25) rotate(0 86.19999694824219 22.5)"><text x="0" y="0" font-family="Virgil, Segoe UI Emoji" font-size="36px" fill="#1e1e1e" text-anchor="start" style="white-space: pre;" direction="ltr" dominant-baseline="text-before-edge">Quiz-Czar</text></g><g stroke-linecap="round" transform="translate(360 3602.75) rotate(0 507 249.5)"><path d="M32 0 C380.58 0.28, 729.37 0.2, 982 0 M32 0 C408.37 1.44, 783.93 1.75, 982 0 M982 0 C1002.76 -1.81, 1015.2 12.32, 1014 32 M982 0 C1002.42 -1.83, 1013.62 11.75, 1014 32 M1014 32 C1015.98 153.78, 1014.68 275.6, 1014 467 M1014 32 C1013.14 156.19, 1012.41 279.89, 1014 467 M1014 467 C1014.45 488.31, 1005.25 500.16, 982 499 M1014 467 C1012.57 488.7, 1003.66 500.03, 982 499 M982 499 C722.42 498.65, 461.83 497.91, 32 499 M982 499 C745.3 496.05, 509.31 495.92, 32 499 M32 499 C8.87 497.58, 0.55 489.99, 0 467 M32 499 C10.2 501.17, 1.59 486.08, 0 467 M0 467 C2.02 325.65, 0.93 184.26, 0 32 M0 467 C0.04 299.76, 0.64 132.43, 0 32 M0 32 C-1.31 9.37, 11.32 -0.14, 32 0 M0 32 C0.83 10.61, 9.83 1.68, 32 0" stroke="#1e1e1e" stroke-width="2" fill="none"></path></g><g stroke-linecap="round" transform="translate(275 2798.5) rotate(0 575 323.5)"><path d="M32 0 C294.79 -2.45, 557.47 -2.12, 1118 0 M32 0 C423.66 -3.76, 815.57 -3.42, 1118 0 M1118 0 C1139.04 1.77, 1148.04 11.45, 1150 32 M1118 0 C1139.29 -1.89, 1149.34 11.04, 1150 32 M1150 32 C1149.51 235.42, 1150.89 438.38, 1150 615 M1150 32 C1147.62 181.32, 1148.02 330.65, 1150 615 M1150 615 C1150.02 636.08, 1139.52 645.73, 1118 647 M1150 615 C1148.44 638.32, 1141.31 647.36, 1118 647 M1118 647 C838.91 644.58, 558.84 644.78, 32 647 M1118 647 C841.47 650.82, 564.49 650.98, 32 647 M32 647 C10.57 647.34, -0.73 635.72, 0 615 M32 647 C10.19 647.77, 1.33 638.44, 0 615 M0 615 C1.54 423.71, 2.5 231.73, 0 32 M0 615 C-1.72 467.46, -2.12 319.28, 0 32 M0 32 C-0.26 9.9, 11.15 -0.79, 32 0 M0 32 C-1.53 11.23, 8.59 -0.94, 32 0" stroke="#1e1e1e" stroke-width="1" fill="none"></path></g><g transform="translate(748.8000030517578 2816.25) rotate(0 86.19999694824219 22.5)"><text x="0" y="0" font-family="Virgil, Segoe UI Emoji" font-size="36px" fill="#1e1e1e" text-anchor="start" style="white-space: pre;" direction="ltr" dominant-baseline="text-before-edge">Quiz-Czar</text></g><g stroke-linecap="round" transform="translate(352 2881.75) rotate(0 507 249.5)"><path d="M32 0 C307.44 -0.61, 582.52 -1.64, 982 0 M32 0 C224.83 0.83, 417.4 0.63, 982 0 M982 0 C1003.29 -1.64, 1013.43 10.99, 1014 32 M982 0 C1004.45 0.17, 1012 8.76, 1014 32 M1014 32 C1015.52 178.9, 1016.06 326.93, 1014 467 M1014 32 C1014.69 147.03, 1014.73 261.87, 1014 467 M1014 467 C1012.65 490.06, 1005.05 499.31, 982 499 M1014 467 C1013.02 486.93, 1001.86 500.83, 982 499 M982 499 C654.55 502.39, 328.55 501.87, 32 499 M982 499 C714.48 499.85, 446.85 499.66, 32 499 M32 499 C10.25 499.67, 1.16 490.16, 0 467 M32 499 C11.32 497.14, 1.53 487.35, 0 467 M0 467 C-2.19 326.69, -1.43 185.26, 0 32 M0 467 C0.93 300.4, 1.12 133.99, 0 32 M0 32 C-1.33 11.16, 8.86 -0.82, 32 0 M0 32 C0.14 8.82, 12.17 -0.39, 32 0" stroke="#1e1e1e" stroke-width="2" fill="none"></path></g><g transform="translate(541.2833404541016 2948.5) rotate(0 302.4083251953125 22.5)"><text x="0" y="0" font-family="Virgil, Segoe UI Emoji" font-size="36px" fill="#1e1e1e" text-anchor="start" style="white-space: pre;" direction="ltr" dominant-baseline="text-before-edge">What is the capital of Australia?</text></g><g stroke-linecap="round" transform="translate(413 3037) rotate(0 203.5 30.5)"><path d="M15.25 0 C146.42 -0.79, 275.42 1.18, 391.75 0 C400.47 3.18, 405.34 7.15, 407 15.25 C405.59 22.76, 408.79 37.7, 407 45.75 C406.54 56.28, 402.41 64.44, 391.75 61 C275.51 61.5, 156.7 62.28, 15.25 61 C7.26 62.2, -0.97 56.84, 0 45.75 C2.18 35.05, 2.38 28.75, 0 15.25 C1.18 3.71, 2.7 1.95, 15.25 0" stroke="none" stroke-width="0" fill="#b2f2bb"></path><path d="M15.25 0 C153.66 0.67, 294.27 1.17, 391.75 0 M15.25 0 C161.54 -1.39, 307.69 -0.8, 391.75 0 M391.75 0 C402.88 0.15, 405.26 3.42, 407 15.25 M391.75 0 C402.83 2.04, 407.53 4.08, 407 15.25 M407 15.25 C406.32 22.27, 405.68 28.08, 407 45.75 M407 15.25 C406.35 24.88, 407.89 32.94, 407 45.75 M407 45.75 C406.15 54.69, 400.64 62.6, 391.75 61 M407 45.75 C408.02 56.77, 403.51 59.96, 391.75 61 M391.75 61 C243.07 60.99, 95.08 61.62, 15.25 61 M391.75 61 C272.25 60.51, 153.34 60.86, 15.25 61 M15.25 61 C5.65 59.39, 1.33 55.06, 0 45.75 M15.25 61 C5.65 62.79, -0.85 54.85, 0 45.75 M0 45.75 C1.56 33.16, 0.02 22.11, 0 15.25 M0 45.75 C-0.74 38.01, -0.98 29.38, 0 15.25 M0 15.25 C0.12 3.48, 6.39 -0.34, 15.25 0 M0 15.25 C1.17 3.07, 4.59 -1.61, 15.25 0" stroke="#1e1e1e" stroke-width="1" fill="none"></path></g><g transform="translate(572.908332824707 3055) rotate(0 43.59166717529297 12.5)"><text x="43.59166717529297" y="0" font-family="Virgil, Segoe UI Emoji" font-size="20px" fill="#1e1e1e" text-anchor="middle" style="white-space: pre;" direction="ltr" dominant-baseline="text-before-edge">Canberra</text></g><g stroke-linecap="round" transform="translate(869.5 3129.5) rotate(0 205.5 30.5)"><path d="M15.25 0 C94.51 1.86, 174.5 1.2, 395.75 0 C406.49 -1.29, 414.37 3.87, 411 15.25 C410.84 22.96, 411.8 33.38, 411 45.75 C411.5 56.45, 406.83 64.23, 395.75 61 C292.38 62.17, 185.82 62.01, 15.25 61 C5.55 60.49, 3.15 58.01, 0 45.75 C0.83 36.21, -2.73 31.36, 0 15.25 C0.26 6.78, 8.52 -1.41, 15.25 0" stroke="none" stroke-width="0" fill="#ffc9c9"></path><path d="M15.25 0 C109.21 -0.83, 201.53 0.31, 395.75 0 M15.25 0 C98.5 -0.32, 180.66 -0.87, 395.75 0 M395.75 0 C406.71 1.78, 411.46 4.21, 411 15.25 M395.75 0 C403.85 0.22, 409.41 4.27, 411 15.25 M411 15.25 C410.54 25.53, 409.52 34.09, 411 45.75 M411 15.25 C410.84 26.43, 410.62 39.63, 411 45.75 M411 45.75 C411.89 56.66, 407.3 60.09, 395.75 61 M411 45.75 C413.17 57.98, 406.6 60.58, 395.75 61 M395.75 61 C303.19 60.45, 209.85 60.64, 15.25 61 M395.75 61 C268.98 62.6, 142.26 62.83, 15.25 61 M15.25 61 C5.57 62.55, -0.74 54.99, 0 45.75 M15.25 61 C7 61.65, 1.29 57.82, 0 45.75 M0 45.75 C-0.78 38.46, -0.81 28.87, 0 15.25 M0 45.75 C0.34 35.05, 0.93 25.79, 0 15.25 M0 15.25 C1.02 3.33, 4.66 -1.4, 15.25 0 M0 15.25 C1.1 6.98, 4.43 0.29, 15.25 0" stroke="#1e1e1e" stroke-width="1" fill="none"></path></g><g transform="translate(1031.841667175293 3147.5) rotate(0 43.15833282470703 12.5)"><text x="43.15833282470703" y="0" font-family="Virgil, Segoe UI Emoji" font-size="20px" fill="#1e1e1e" text-anchor="middle" style="white-space: pre;" direction="ltr" dominant-baseline="text-before-edge">Shorewell</text></g><g stroke-linecap="round" transform="translate(414.5 3129.5) rotate(0 203.5 30.5)"><path d="M15.25 0 C161.83 -3.14, 309.75 -3.09, 391.75 0 C399.79 1.99, 410.17 4.62, 407 15.25 C407.58 25.24, 407.99 37.4, 407 45.75 C406.1 58.14, 402.31 63.18, 391.75 61 C266.52 61.74, 142.63 63.32, 15.25 61 C3.93 63.31, 2.09 57.1, 0 45.75 C0.63 39.46, 3.8 28.36, 0 15.25 C-0.93 8.37, 8.09 -0.76, 15.25 0" stroke="none" stroke-width="0" fill="#ffc9c9"></path><path d="M15.25 0 C90.35 -0.3, 167.63 0.63, 391.75 0 M15.25 0 C131.28 2.43, 246.98 1.63, 391.75 0 M391.75 0 C400.12 0.19, 405.62 4.38, 407 15.25 M391.75 0 C402.63 -1.55, 407.03 4.8, 407 15.25 M407 15.25 C408.54 26.41, 407.12 33.28, 407 45.75 M407 15.25 C407.25 22.91, 407.5 29.37, 407 45.75 M407 45.75 C408.89 57.71, 402.51 60.63, 391.75 61 M407 45.75 C405.71 56.39, 401.81 61.39, 391.75 61 M391.75 61 C293.02 61.23, 194.58 60.87, 15.25 61 M391.75 61 C309.34 60.5, 226.42 59.74, 15.25 61 M15.25 61 C6.75 61.56, 1.12 57.57, 0 45.75 M15.25 61 C4.05 61.13, -0.3 55.04, 0 45.75 M0 45.75 C0.61 34.06, -0.7 26.11, 0 15.25 M0 45.75 C0.31 38.17, -0.41 31.63, 0 15.25 M0 15.25 C0.95 6.73, 4.52 0.25, 15.25 0 M0 15.25 C-2.06 3.38, 5.11 -0.92, 15.25 0" stroke="#1e1e1e" stroke-width="1" fill="none"></path></g><g transform="translate(585.25 3147.5) rotate(0 32.75 12.5)"><text x="32.75" y="0" font-family="Virgil, Segoe UI Emoji" font-size="20px" fill="#1e1e1e" text-anchor="middle" style="white-space: pre;" direction="ltr" dominant-baseline="text-before-edge">Hobart</text></g><g stroke-linecap="round" transform="translate(865.5 3034.5) rotate(0 209 30.5)"><path d="M15.25 0 C116.36 2.55, 221.83 1.11, 402.75 0 C413.28 0.49, 421.44 5.58, 418 15.25 C417.24 27.07, 418.54 36.63, 418 45.75 C419.2 54.95, 413.84 61.46, 402.75 61 C291.3 64.74, 182.43 64.08, 15.25 61 C3.71 58.62, 1.95 56.18, 0 45.75 C-1.46 38.45, 2.48 23.81, 0 15.25 C2.16 4.28, 7.5 0.86, 15.25 0" stroke="none" stroke-width="0" fill="#ffc9c9"></path><path d="M15.25 0 C120.5 -2.12, 224.6 -0.63, 402.75 0 M15.25 0 C165.42 1.05, 316.25 0.79, 402.75 0 M402.75 0 C413.54 -1.35, 418.02 4.83, 418 15.25 M402.75 0 C413.13 -1.46, 416.44 7.07, 418 15.25 M418 15.25 C416.82 25.75, 419.64 39.68, 418 45.75 M418 15.25 C419.15 26.43, 418.51 35.63, 418 45.75 M418 45.75 C416.88 56.33, 412.82 61.34, 402.75 61 M418 45.75 C417.16 55.21, 412.44 61.77, 402.75 61 M402.75 61 C263.16 62.43, 124.96 61.94, 15.25 61 M402.75 61 C256.89 60.11, 110.38 60.43, 15.25 61 M15.25 61 C4.18 61.11, -0.26 55.15, 0 45.75 M15.25 61 C5.64 60.09, -1.53 56.48, 0 45.75 M0 45.75 C-1.48 40.66, -0.22 33.97, 0 15.25 M0 45.75 C0.54 40.09, -0.22 32.91, 0 15.25 M0 15.25 C-1.79 3.6, 5.1 -0.8, 15.25 0 M0 15.25 C2.03 4.02, 6.41 0.37, 15.25 0" stroke="#1e1e1e" stroke-width="1" fill="none"></path></g><g transform="translate(1007.8833312988281 3052.5) rotate(0 66.61666870117188 12.5)"><text x="66.61666870117188" y="0" font-family="Virgil, Segoe UI Emoji" font-size="20px" fill="#1e1e1e" text-anchor="middle" style="white-space: pre;" direction="ltr" dominant-baseline="text-before-edge">Wagga Wagga</text></g><g transform="translate(592.5916748046875 3295.5) rotate(0 208.9166717529297 17.5)"><text x="0" y="0" font-family="Virgil, Segoe UI Emoji" font-size="28px" fill="#1e1e1e" text-anchor="start" style="white-space: pre;" direction="ltr" dominant-baseline="text-before-edge">    Question 1/10    Game 1/5</text></g><g transform="translate(1428.3454823998222 2376.9182332193986) rotate(0 231.5500030517578 25)"><text x="0" y="0" font-family="Virgil, Segoe UI Emoji" font-size="20px" fill="#1e1e1e" text-anchor="start" style="white-space: pre;" direction="ltr" dominant-baseline="text-before-edge">use an overlay over the main screen/graphics?</text><text x="0" y="25" font-family="Virgil, Segoe UI Emoji" font-size="20px" fill="#1e1e1e" text-anchor="start" style="white-space: pre;" direction="ltr" dominant-baseline="text-before-edge">have opening screen graphics in background still</text></g><g stroke-linecap="round"><g transform="translate(1464.3454823998222 2431.9182332193986) rotate(0 -38.5 33.5)"><path d="M0.06 0.47 C-12.65 11.57, -63.63 55.74, -76.37 66.67 M-1.36 -0.32 C-14.17 10.95, -64.41 56.83, -76.99 68.04" stroke="#1e1e1e" stroke-width="1" fill="none"></path></g><g transform="translate(1464.3454823998222 2431.9182332193986) rotate(0 -38.5 33.5)"><path d="M-62.94 41.53 C-66.23 50.31, -71.67 57.99, -76.99 68.04 M-62.94 41.53 C-66.99 47.02, -70.15 52.45, -76.99 68.04" stroke="#1e1e1e" stroke-width="1" fill="none"></path></g><g transform="translate(1464.3454823998222 2431.9182332193986) rotate(0 -38.5 33.5)"><path d="M-49.19 56.76 C-56.5 61.11, -65.95 64.34, -76.99 68.04 M-49.19 56.76 C-56.16 58.79, -62.38 60.84, -76.99 68.04" stroke="#1e1e1e" stroke-width="1" fill="none"></path></g></g><mask></mask><g transform="translate(1439.3454823998222 2963.9182332193986) rotate(0 231.5500030517578 25)"><text x="0" y="0" font-family="Virgil, Segoe UI Emoji" font-size="20px" fill="#1e1e1e" text-anchor="start" style="white-space: pre;" direction="ltr" dominant-baseline="text-before-edge">use an overlay over the main screen/graphics?</text><text x="0" y="25" font-family="Virgil, Segoe UI Emoji" font-size="20px" fill="#1e1e1e" text-anchor="start" style="white-space: pre;" direction="ltr" dominant-baseline="text-before-edge">have opening screen graphics in background still</text></g><g stroke-linecap="round"><g transform="translate(1475.3454823998222 3018.9182332193986) rotate(0 -38.5 33.5)"><path d="M1.01 -0.68 C-11.8 10.57, -63.85 56.96, -76.88 68.06 M0.08 1.58 C-12.87 12.47, -64.75 55.65, -77.76 66.49" stroke="#1e1e1e" stroke-width="1" fill="none"></path></g><g transform="translate(1475.3454823998222 3018.9182332193986) rotate(0 -38.5 33.5)"><path d="M-62.67 40.56 C-68.13 48.56, -69.71 55.79, -77.76 66.49 M-62.67 40.56 C-65.37 46.31, -69.01 50.32, -77.76 66.49" stroke="#1e1e1e" stroke-width="1" fill="none"></path></g><g transform="translate(1475.3454823998222 3018.9182332193986) rotate(0 -38.5 33.5)"><path d="M-49.53 56.33 C-58.96 59.77, -64.42 62.34, -77.76 66.49 M-49.53 56.33 C-55.05 58.7, -61.41 59.45, -77.76 66.49" stroke="#1e1e1e" stroke-width="1" fill="none"></path></g></g><mask></mask><g stroke-linecap="round"><g transform="translate(1537 3270) rotate(0 -313.5 -10.5)"><path d="M-1.15 0.62 C-105.64 -2.76, -521.66 -17.19, -625.93 -20.84 M0.45 -0.09 C-104.2 -3.22, -521.68 -15.88, -626.31 -19.22" stroke="#1e1e1e" stroke-width="1" fill="none"></path></g><g transform="translate(1537 3270) rotate(0 -313.5 -10.5)"><path d="M-597.82 -28.6 C-607.83 -23.46, -619.61 -21.17, -626.31 -19.22 M-597.82 -28.6 C-605.92 -26.6, -612.82 -24.68, -626.31 -19.22" stroke="#1e1e1e" stroke-width="1" fill="none"></path></g><g transform="translate(1537 3270) rotate(0 -313.5 -10.5)"><path d="M-598.45 -8.09 C-608.13 -10.87, -619.67 -16.5, -626.31 -19.22 M-598.45 -8.09 C-606.31 -11.74, -613.03 -15.47, -626.31 -19.22" stroke="#1e1e1e" stroke-width="1" fill="none"></path></g></g><mask></mask><g transform="translate(1560 3189) rotate(0 216.50833129882812 87.5)"><text x="0" y="0" font-family="Virgil, Segoe UI Emoji" font-size="28px" fill="#1e1e1e" text-anchor="start" style="white-space: pre;" direction="ltr" dominant-baseline="text-before-edge">When clicked, something needs</text><text x="0" y="35" font-family="Virgil, Segoe UI Emoji" font-size="28px" fill="#1e1e1e" text-anchor="start" style="white-space: pre;" direction="ltr" dominant-baseline="text-before-edge">to indicate correct or wrong</text><text x="0" y="70" font-family="Virgil, Segoe UI Emoji" font-size="28px" fill="#1e1e1e" text-anchor="start" style="white-space: pre;" direction="ltr" dominant-baseline="text-before-edge">answer, THEN show use colours</text><text x="0" y="105" font-family="Virgil, Segoe UI Emoji" font-size="28px" fill="#1e1e1e" text-anchor="start" style="white-space: pre;" direction="ltr" dominant-baseline="text-before-edge">to show correct and wrong</text><text x="0" y="140" font-family="Virgil, Segoe UI Emoji" font-size="28px" fill="#1e1e1e" text-anchor="start" style="white-space: pre;" direction="ltr" dominant-baseline="text-before-edge">answers</text></g><g transform="translate(765.8000030517578 3631.5) rotate(0 66.7249984741211 22.5)"><text x="0" y="0" font-family="Virgil, Segoe UI Emoji" font-size="36px" fill="#1e1e1e" text-anchor="start" style="white-space: pre;" direction="ltr" dominant-baseline="text-before-edge">Results</text></g><g transform="translate(633.0833282470703 3720.5) rotate(0 180.71665954589844 17.5)"><text x="0" y="0" font-family="Virgil, Segoe UI Emoji" font-size="28px" fill="#1e1e1e" text-anchor="start" style="white-space: pre;" direction="ltr" dominant-baseline="text-before-edge">Score for this Game: 6/10</text></g><g transform="translate(683.2833404541016 3822.5) rotate(0 137.94166564941406 17.5)"><text x="0" y="0" font-family="Virgil, Segoe UI Emoji" font-size="28px" fill="#1e1e1e" text-anchor="start" style="white-space: pre;" direction="ltr" dominant-baseline="text-before-edge">Average Score: 6/10</text></g><g stroke-linecap="round" transform="translate(429.75 3952.75) rotate(0 53 30.5)"><path d="M15.25 0 C31.06 -1.74, 54.18 2.59, 90.75 0 C98.01 1.19, 107.21 3.55, 106 15.25 C103.48 23.16, 105.93 29.28, 106 45.75 C103.69 57.9, 103.9 63.46, 90.75 61 C74.66 59.75, 58.27 58.9, 15.25 61 C4.44 63.8, -2.74 55.52, 0 45.75 C3.5 35.65, 1.67 28.46, 0 15.25 C-1.15 7.99, 3.98 0.72, 15.25 0" stroke="none" stroke-width="0" fill="#ffc9c9"></path><path d="M15.25 0 C39.06 0.86, 61.62 -2.19, 90.75 0 M15.25 0 C31.36 -1.03, 45.36 -0.72, 90.75 0 M90.75 0 C102.49 -0.72, 106.44 3.82, 106 15.25 M90.75 0 C99.44 0.63, 107.22 4.43, 106 15.25 M106 15.25 C107.72 26.51, 104.6 33.57, 106 45.75 M106 15.25 C106.95 21.51, 106.65 28.36, 106 45.75 M106 45.75 C107.18 56.4, 102.32 59.33, 90.75 61 M106 45.75 C106.55 56.45, 100.98 61.78, 90.75 61 M90.75 61 C70.09 62.38, 54.09 61.55, 15.25 61 M90.75 61 C67.05 60.84, 42.86 61.54, 15.25 61 M15.25 61 C3.58 60.05, -0.14 55.96, 0 45.75 M15.25 61 C3.18 59.99, -2.08 57.69, 0 45.75 M0 45.75 C-0.88 34.38, 0.18 20.88, 0 15.25 M0 45.75 C-0.62 37.78, -0.19 29.6, 0 15.25 M0 15.25 C-1.45 6.81, 6.35 1.76, 15.25 0 M0 15.25 C0.09 6.98, 4.45 -1.72, 15.25 0" stroke="#1e1e1e" stroke-width="1" fill="none"></path></g><g transform="translate(462.54999923706055 3970.75) rotate(0 20.200000762939453 12.5)"><text x="20.200000762939453" y="0" font-family="Virgil, Segoe UI Emoji" font-size="20px" fill="#1e1e1e" text-anchor="middle" style="white-space: pre;" direction="ltr" dominant-baseline="text-before-edge">Exit</text></g><g stroke-linecap="round" transform="translate(882.25 3950.25) rotate(0 209 30.5)"><path d="M15.25 0 C107.52 -1.88, 203.91 -3.47, 402.75 0 C410.5 2.9, 415 2.12, 418 15.25 C415.61 27.06, 420.91 37.38, 418 45.75 C415.79 52.83, 410.8 62.93, 402.75 61 C290.95 61.17, 178.3 59.29, 15.25 61 C5.14 58.83, -2.91 59.09, 0 45.75 C-1.36 40.27, -1.31 29.7, 0 15.25 C-1.09 5.56, 7.56 2.31, 15.25 0" stroke="none" stroke-width="0" fill="#b2f2bb"></path><path d="M15.25 0 C159.87 2.85, 307.84 2.76, 402.75 0 M15.25 0 C117.9 -0.09, 219.76 -0.25, 402.75 0 M402.75 0 C411.63 0.55, 419.06 4.52, 418 15.25 M402.75 0 C413.57 2.14, 419.57 6.74, 418 15.25 M418 15.25 C416.26 27.79, 419.09 38.77, 418 45.75 M418 15.25 C418.72 22.72, 418.83 28.86, 418 45.75 M418 45.75 C418.48 56.38, 412.97 61.68, 402.75 61 M418 45.75 C416.9 57.84, 413.28 59.15, 402.75 61 M402.75 61 C262.4 61.59, 121.19 62.24, 15.25 61 M402.75 61 C283.5 62.46, 165.1 62.75, 15.25 61 M15.25 61 C3.43 60.13, -1.81 57.46, 0 45.75 M15.25 61 C7.15 59.37, 0.43 54.66, 0 45.75 M0 45.75 C-0.66 36.67, -1.87 24.86, 0 15.25 M0 45.75 C-0.71 36.96, 0.65 27.32, 0 15.25 M0 15.25 C0.08 6.73, 4.53 -1.5, 15.25 0 M0 15.25 C-1.3 5.73, 4.52 -1.64, 15.25 0" stroke="#1e1e1e" stroke-width="1" fill="none"></path></g><g transform="translate(1036.716667175293 3968.25) rotate(0 54.53333282470703 12.5)"><text x="54.53333282470703" y="0" font-family="Virgil, Segoe UI Emoji" font-size="20px" fill="#1e1e1e" text-anchor="middle" style="white-space: pre;" direction="ltr" dominant-baseline="text-before-edge">Next Game</text></g><g stroke-linecap="round"><g transform="translate(1557 3866) rotate(0 -135 56.5)"><path d="M-0.89 0.43 C-45.81 19.07, -224.04 94.34, -268.93 112.92 M0.85 -0.39 C-44.2 18.97, -223.99 95.58, -269.31 114.41" stroke="#1e1e1e" stroke-width="1" fill="none"></path></g><g transform="translate(1557 3866) rotate(0 -135 56.5)"><path d="M-247.32 94.01 C-254.16 102.81, -262.76 107.83, -269.31 114.41 M-247.32 94.01 C-251.37 97.23, -256.29 103.4, -269.31 114.41" stroke="#1e1e1e" stroke-width="1" fill="none"></path></g><g transform="translate(1557 3866) rotate(0 -135 56.5)"><path d="M-239.35 112.92 C-249.16 115.01, -260.57 113.37, -269.31 114.41 M-239.35 112.92 C-245.2 112.22, -251.77 114.48, -269.31 114.41" stroke="#1e1e1e" stroke-width="1" fill="none"></path></g></g><mask></mask><g transform="translate(1574 3850) rotate(0 170.39166259765625 17.5)"><text x="0" y="0" font-family="Virgil, Segoe UI Emoji" font-size="28px" fill="#1e1e1e" text-anchor="start" style="white-space: pre;" direction="ltr" dominant-baseline="text-before-edge">say "finish" on last game</text></g><g stroke-linecap="round"><g transform="translate(199 3869) rotate(0 113 56.5)"><path d="M0.62 0.88 C38.12 19.93, 187.62 94.79, 225.26 113.29 M-0.52 0.29 C37.35 19.06, 189.85 92.6, 227.58 111.32" stroke="#1e1e1e" stroke-width="1" fill="none"></path></g><g transform="translate(199 3869) rotate(0 113 56.5)"><path d="M197.75 108.17 C208.79 107.8, 217.41 110.76, 227.58 111.32 M197.75 108.17 C204.53 108.3, 210.81 108.32, 227.58 111.32" stroke="#1e1e1e" stroke-width="1" fill="none"></path></g><g transform="translate(199 3869) rotate(0 113 56.5)"><path d="M206.75 89.73 C214.73 95.34, 220.46 104.24, 227.58 111.32 M206.75 89.73 C211.81 93.72, 216.25 97.52, 227.58 111.32" stroke="#1e1e1e" stroke-width="1" fill="none"></path></g></g><mask></mask><g transform="translate(10 3798) rotate(0 103.51667022705078 35)"><text x="0" y="0" font-family="Virgil, Segoe UI Emoji" font-size="28px" fill="#1e1e1e" text-anchor="start" style="white-space: pre;" direction="ltr" dominant-baseline="text-before-edge">give a warning</text><text x="0" y="35" font-family="Virgil, Segoe UI Emoji" font-size="28px" fill="#1e1e1e" text-anchor="start" style="white-space: pre;" direction="ltr" dominant-baseline="text-before-edge">popup if clicked</text></g><g stroke-linecap="round"><g transform="translate(1409.708057457865 1929.8559090081599) rotate(0 -39 -4.5)"><path d="M-0.64 0.44 C-13.68 -0.95, -64.49 -6.7, -77.26 -8.1 M1.23 -0.38 C-12 -2.11, -64.68 -8.18, -77.82 -9.74" stroke="#1e1e1e" stroke-width="1" fill="none"></path></g><g transform="translate(1409.708057457865 1929.8559090081599) rotate(0 -39 -4.5)"><path d="M-48.63 -16.66 C-59.12 -12.92, -69.59 -10.2, -77.82 -9.74 M-48.63 -16.66 C-60.11 -14.62, -71.38 -11.58, -77.82 -9.74" stroke="#1e1e1e" stroke-width="1" fill="none"></path></g><g transform="translate(1409.708057457865 1929.8559090081599) rotate(0 -39 -4.5)"><path d="M-51.01 3.73 C-60.63 -0.37, -70.17 -5.51, -77.82 -9.74 M-51.01 3.73 C-61.53 -2.13, -71.87 -6.99, -77.82 -9.74" stroke="#1e1e1e" stroke-width="1" fill="none"></path></g></g><mask></mask><g transform="translate(1430.708057457865 1877.8559090081599) rotate(0 103.51667022705078 35)"><text x="0" y="0" font-family="Virgil, Segoe UI Emoji" font-size="28px" fill="#1e1e1e" text-anchor="start" style="white-space: pre;" direction="ltr" dominant-baseline="text-before-edge">give a warning</text><text x="0" y="35" font-family="Virgil, Segoe UI Emoji" font-size="28px" fill="#1e1e1e" text-anchor="start" style="white-space: pre;" direction="ltr" dominant-baseline="text-before-edge">popup if clicked</text></g><g stroke-linecap="round" transform="translate(281 4223.5) rotate(0 575 323.5)"><path d="M32 0 C254.85 -0.51, 477.13 0.22, 1118 0 M32 0 C347.43 1.86, 662.94 2.07, 1118 0 M1118 0 C1139.38 0.13, 1148.68 12.06, 1150 32 M1118 0 C1140.1 2.07, 1150.14 9.85, 1150 32 M1150 32 C1150.52 241.51, 1150.02 452.56, 1150 615 M1150 32 C1149.09 175.26, 1149.76 318.83, 1150 615 M1150 615 C1151.5 634.64, 1140.07 645.54, 1118 647 M1150 615 C1150.11 636.44, 1139.94 647.14, 1118 647 M1118 647 C688.71 651.28, 258.62 651.33, 32 647 M1118 647 C823.37 646.05, 529.68 646.37, 32 647 M32 647 C8.84 645.38, -0.6 636.25, 0 615 M32 647 C11.77 644.93, 0.32 638.58, 0 615 M0 615 C2.04 481.15, 2.63 347.37, 0 32 M0 615 C1.86 400.96, 2.11 187.15, 0 32 M0 32 C-0.87 10.76, 9.71 -0.45, 32 0 M0 32 C0.95 11.24, 10.67 -0.37, 32 0" stroke="#1e1e1e" stroke-width="1" fill="none"></path></g><g transform="translate(742.8000030517578 4253.25) rotate(0 86.19999694824219 22.5)"><text x="0" y="0" font-family="Virgil, Segoe UI Emoji" font-size="36px" fill="#1e1e1e" text-anchor="start" style="white-space: pre;" direction="ltr" dominant-baseline="text-before-edge">Quiz-Czar</text></g><g stroke-linecap="round" transform="translate(358 4306.75) rotate(0 507 249.5)"><path d="M32 0 C288.94 -2.93, 545.68 -2.84, 982 0 M32 0 C305.76 -1.58, 579.23 -1.33, 982 0 M982 0 C1004 1.8, 1014.12 9.96, 1014 32 M982 0 C1004.72 -0.04, 1014.85 12.29, 1014 32 M1014 32 C1013.61 137.36, 1013.22 242.39, 1014 467 M1014 32 C1016.28 146.56, 1016.08 261.6, 1014 467 M1014 467 C1014.09 488.42, 1003.86 499.12, 982 499 M1014 467 C1016.21 489.54, 1005.29 501.24, 982 499 M982 499 C627.41 501.96, 273.17 501.28, 32 499 M982 499 C780.98 498.37, 580.56 498.68, 32 499 M32 499 C11.62 497.2, 0.28 490.29, 0 467 M32 499 C9.04 497.07, -0.53 488.59, 0 467 M0 467 C-1.2 339.28, -1.07 212.63, 0 32 M0 467 C0.24 331.64, 0.22 196.11, 0 32 M0 32 C0.83 11.17, 10.67 -0.32, 32 0 M0 32 C0.9 12.16, 9.13 0.56, 32 0" stroke="#1e1e1e" stroke-width="2" fill="none"></path></g><g transform="translate(729.8000030517578 4333.5) rotate(0 115.1500015258789 22.5)"><text x="0" y="0" font-family="Virgil, Segoe UI Emoji" font-size="36px" fill="#1e1e1e" text-anchor="start" style="white-space: pre;" direction="ltr" dominant-baseline="text-before-edge">Final Results</text></g><g stroke-linecap="round"><g transform="translate(1537 4411) rotate(0 -291 27.5)"><path d="M0.12 -0.88 C-97.2 8.05, -485.75 45.08, -582.75 54.5 M-1.28 1.28 C-98.31 10.28, -483.55 47.04, -580.44 55.78" stroke="#1e1e1e" stroke-width="1" fill="none"></path></g><g transform="translate(1537 4411) rotate(0 -291 27.5)"><path d="M-553.32 42.95 C-565.45 46.82, -575.59 53.31, -580.44 55.78 M-553.32 42.95 C-563.4 47.01, -572.88 51.83, -580.44 55.78" stroke="#1e1e1e" stroke-width="1" fill="none"></path></g><g transform="translate(1537 4411) rotate(0 -291 27.5)"><path d="M-551.42 63.38 C-564.47 59.13, -575.37 57.51, -580.44 55.78 M-551.42 63.38 C-562.05 60.16, -572.21 57.69, -580.44 55.78" stroke="#1e1e1e" stroke-width="1" fill="none"></path></g></g><mask></mask><g transform="translate(1570 4381) rotate(0 195.60833740234375 122.5)"><text x="0" y="0" font-family="Virgil, Segoe UI Emoji" font-size="28px" fill="#1e1e1e" text-anchor="start" style="white-space: pre;" direction="ltr" dominant-baseline="text-before-edge">make a bar graph:</text><text x="0" y="35" font-family="Virgil, Segoe UI Emoji" font-size="28px" fill="#1e1e1e" text-anchor="start" style="white-space: pre;" direction="ltr" dominant-baseline="text-before-edge">x-axis has as many bars as</text><text x="0" y="70" font-family="Virgil, Segoe UI Emoji" font-size="28px" fill="#1e1e1e" text-anchor="start" style="white-space: pre;" direction="ltr" dominant-baseline="text-before-edge">number of games</text><text x="0" y="105" font-family="Virgil, Segoe UI Emoji" font-size="28px" fill="#1e1e1e" text-anchor="start" style="white-space: pre;" direction="ltr" dominant-baseline="text-before-edge">y-axis: has height according</text><text x="0" y="140" font-family="Virgil, Segoe UI Emoji" font-size="28px" fill="#1e1e1e" text-anchor="start" style="white-space: pre;" direction="ltr" dominant-baseline="text-before-edge">to questions correct as</text><text x="0" y="175" font-family="Virgil, Segoe UI Emoji" font-size="28px" fill="#1e1e1e" text-anchor="start" style="white-space: pre;" direction="ltr" dominant-baseline="text-before-edge">per questions per game</text><text x="0" y="210" font-family="Virgil, Segoe UI Emoji" font-size="28px" fill="#1e1e1e" text-anchor="start" style="white-space: pre;" direction="ltr" dominant-baseline="text-before-edge">probably need css calc</text></g><g transform="translate(533.2833404541016 4713.5) rotate(0 211.21665954589844 17.5)"><text x="0" y="0" font-family="Virgil, Segoe UI Emoji" font-size="28px" fill="#1e1e1e" text-anchor="start" style="white-space: pre;" direction="ltr" dominant-baseline="text-before-edge">Total Correct Answers: 37/50</text></g><g stroke-linecap="round"><g transform="translate(556 4406) rotate(0 4 100.5)"><path d="M-0.18 -0.01 C1.35 33.68, 7.03 168.14, 8.44 201.57 M-1.73 -1.06 C-0.25 32.33, 6.16 165.96, 7.72 199.74" stroke="#1e1e1e" stroke-width="1" fill="none"></path></g></g><mask></mask><g stroke-linecap="round"><g transform="translate(584 4443) rotate(0 1.5 82)"><path d="M0.83 -0.69 C1.12 26.85, 2.31 137.56, 2.86 164.92 M-0.19 1.55 C-0.17 28.8, 1.14 136.13, 1.84 163.27" stroke="#1e1e1e" stroke-width="1" fill="none"></path></g></g><mask></mask><g stroke-linecap="round"><g transform="translate(626 4424) rotate(0 -1 92)"><path d="M-0.75 -0.94 C-1.13 29.71, -1.65 152.48, -2 183.34 M1.06 1.19 C0.5 32.02, -2.71 153.79, -2.95 184.53" stroke="#1e1e1e" stroke-width="1" fill="none"></path></g></g><mask></mask><g transform="translate(677 4497) rotate(0 129.0833282470703 17.5)"><text x="0" y="0" font-family="Virgil, Segoe UI Emoji" font-size="28px" fill="#1e1e1e" text-anchor="start" style="white-space: pre;" direction="ltr" dominant-baseline="text-before-edge">... etc.... bar graph</text></g><g stroke-linecap="round" transform="translate(1055 4700.5) rotate(0 131 30.5)"><path d="M15.25 0 C73.45 2.44, 128.05 2.25, 246.75 0 C258.29 -2.24, 264.85 4.2, 262 15.25 C260.07 22.81, 263.72 33.35, 262 45.75 C259.33 54.68, 256.76 62.84, 246.75 61 C169.7 55.97, 93.59 58.73, 15.25 61 C4.61 57.43, 0.27 52.66, 0 45.75 C0.5 36.16, 1.09 30.14, 0 15.25 C-2.98 4.95, 7.85 0.13, 15.25 0" stroke="none" stroke-width="0" fill="#b2f2bb"></path><path d="M15.25 0 C76.38 -0.88, 136.93 -1.6, 246.75 0 M15.25 0 C107.22 -2.01, 197.4 -1, 246.75 0 M246.75 0 C258.1 -0.31, 262.22 3.77, 262 15.25 M246.75 0 C257.01 0.74, 262.01 4.12, 262 15.25 M262 15.25 C263.53 27.73, 260.23 39.82, 262 45.75 M262 15.25 C262.34 21.83, 261.56 28.44, 262 45.75 M262 45.75 C260.19 57.32, 255.4 62.53, 246.75 61 M262 45.75 C263.78 54.44, 258.44 59.61, 246.75 61 M246.75 61 C183.28 63.13, 118.55 63.29, 15.25 61 M246.75 61 C197.98 59.95, 149.52 59.1, 15.25 61 M15.25 61 C3.95 61.28, 0.69 57.13, 0 45.75 M15.25 61 C3.88 60.84, -1.5 55.82, 0 45.75 M0 45.75 C1.02 32.69, -0.33 21.32, 0 15.25 M0 45.75 C0.37 36.69, 0.23 27.9, 0 15.25 M0 15.25 C1.63 3.41, 4.07 1.4, 15.25 0 M0 15.25 C-1.93 4.3, 5.26 -0.89, 15.25 0" stroke="#1e1e1e" stroke-width="1" fill="none"></path></g><g transform="translate(1165.7999992370605 4718.5) rotate(0 20.200000762939453 12.5)"><text x="20.200000762939453" y="0" font-family="Virgil, Segoe UI Emoji" font-size="20px" fill="#1e1e1e" text-anchor="middle" style="white-space: pre;" direction="ltr" dominant-baseline="text-before-edge">Exit</text></g></svg>